<svg xmlns:dc="http://purl.org/dc/elements/1.1/" xmlns:cc="http://creativecommons.org/ns#" xmlns:rdf="http://www.w3.org/1999/02/22-rdf-syntax-ns#" xmlns:svg="http://www.w3.org/2000/svg" xmlns="http://www.w3.org/2000/svg" xmlns:sodipodi="http://sodipodi.sourceforge.net/DTD/sodipodi-0.dtd" xmlns:inkscape="http://www.inkscape.org/namespaces/inkscape" width="300" height="300" viewBox="0 0 79.374999 79.375002" version="1.1" id="svg1193" sodipodi:docname="puntos.svg" inkscape:version="0.92.3 (2405546, 2018-03-11)" style="">
							  <defs id="defs1187"></defs>
							  <sodipodi:namedview id="base" pagecolor="#ffffff" bordercolor="#666666" borderopacity="1.0" inkscape:pageopacity="0.0" inkscape:pageshadow="2" inkscape:zoom="1.979899" inkscape:cx="116.044" inkscape:cy="136.25417" inkscape:document-units="mm" inkscape:current-layer="layer1" showgrid="false" units="px" inkscape:window-width="1920" inkscape:window-height="986" inkscape:window-x="-11" inkscape:window-y="-11" inkscape:window-maximized="1"></sodipodi:namedview>
							  <metadata id="metadata1190">
							    <rdf:rdf>
							      <cc:work rdf:about="">
							        <dc:format>image/svg+xml</dc:format>
							        <dc:type rdf:resource="http://purl.org/dc/dcmitype/StillImage"></dc:type>
							        <dc:title></dc:title>
							      </cc:work>
							    </rdf:rdf>
							  </metadata>
							  <g inkscape:label="Capa 1" inkscape:groupmode="layer" id="layer1" transform="translate(0,-217.62498)">
							    <path style="fill:none;stroke:#000000;stroke-width:0.26458332px;stroke-linecap:butt;stroke-linejoin:miter;stroke-opacity:1" d="m 18.647271,257.03944 c 1.844735,-3.41086 3.738078,-6.80405 1.761544,-11.60446 3.107308,-2.20576 6.370963,-4.19263 7.75575,-8.80992 3.762519,-0.16652 7.525037,-1.2701 11.287556,-3.21831 3.34226,2.13909 7.183424,3.03092 11.235647,3.3951 1.371723,4.14397 4.110556,6.92084 7.616497,8.93059 -0.863749,5.26703 0.355547,8.45102 1.579166,11.63068 -4.367419,4.77978 -4.346357,7.5648 -4.959543,10.63811 -4.188469,1.20874 -7.140994,3.65343 -9.923629,6.26801 -2.685486,-1.71763 -6.211828,-2.27909 -11.737036,-0.0921 -1.472852,-4.16806 -5.550874,-5.4053 -9.824014,-6.42303 0.187141,-3.57156 -1.065494,-7.14311 -4.791938,-10.71467 z" id="path1199" inkscape:connector-curvature="0" sodipodi:nodetypes="cccccccccccc" class="vYHYDSoN_0"></path>
							    <path style="opacity: 0.964; fill: none; fill-opacity: 1; stroke: rgb(4, 0, 5); stroke-width: 0.87567; stroke-miterlimit: 4; stroke-opacity: 0.954373;" id="path1201" d="M25.962978,254.03642A13.192006,12.991556 0,1,1 52.34699,254.03642A13.192006,12.991556 0,1,1 25.962978,254.03642" class="vYHYDSoN_1"></path>
							    <path style="fill:none;stroke:#000000;stroke-width:0.36327082px;stroke-linecap:butt;stroke-linejoin:miter;stroke-opacity:1" d="m 29.341241,269.52513 c -1.422415,8.34266 -9.929558,11.48985 -16.283918,16.21575" id="path1203" inkscape:connector-curvature="0" sodipodi:nodetypes="cc" class="vYHYDSoN_2"></path>
							    <path style="fill:none;stroke:#000000;stroke-width:0.41605672px;stroke-linecap:butt;stroke-linejoin:miter;stroke-opacity:1" d="m 41.010775,273.0329 c -3.301383,9.11044 -9.837093,14.98656 -18.117078,19.1184" id="path1203-2" inkscape:connector-curvature="0" sodipodi:nodetypes="cc" class="vYHYDSoN_3"></path>
							    <path style="fill:none;stroke:#000000;stroke-width:0.32786873px;stroke-linecap:butt;stroke-linejoin:miter;stroke-opacity:1" d="m 39.004478,277.10309 c 2.345537,6.58468 8.901188,10.30128 15.03931,14.30233" id="path1203-2-0" inkscape:connector-curvature="0" sodipodi:nodetypes="cc" class="vYHYDSoN_4"></path>
							    <path style="fill:none;stroke:#000000;stroke-width:0.32355168px;stroke-linecap:butt;stroke-linejoin:miter;stroke-opacity:1" d="m 48.910324,271.20846 c 1.325297,6.48511 9.089563,9.75074 15.050016,13.91827" id="path1203-2-0-9" inkscape:connector-curvature="0" sodipodi:nodetypes="cc" class="vYHYDSoN_5"></path>
							    <path style="fill:none;stroke:#000000;stroke-width:0.26458332px;stroke-linecap:butt;stroke-linejoin:miter;stroke-opacity:1" d="m 13.057323,285.74088 7.349912,0.40091 2.474102,6.02212" id="path1252" inkscape:connector-curvature="0" class="vYHYDSoN_6"></path>
							    <path style="fill:none;stroke:#000000;stroke-width:0.26458332px;stroke-linecap:butt;stroke-linejoin:miter;stroke-opacity:1" d="m 54.036714,291.39474 2.593863,-5.51932 7.329763,-0.74869" id="path1254" inkscape:connector-curvature="0" class="vYHYDSoN_7"></path>
							    <flowroot xml:space="preserve" id="flowRoot1256" style="font-style:normal;font-variant:normal;font-weight:normal;font-stretch:normal;font-size:40px;line-height:1.25;font-family:Bahnschrift;-inkscape-font-specification:Bahnschrift;letter-spacing:0px;word-spacing:0px;fill:#000000;fill-opacity:1;stroke:#000000;stroke-opacity:1;stroke-width:0.75590552;stroke-miterlimit:4;stroke-dasharray:none" transform="matrix(0.26458333,0,0,0.26458333,72.430042,236.86839)"><flowregion id="flowRegion1258" style="stroke:#000000;stroke-opacity:1;stroke-width:0.75590552;stroke-miterlimit:4;stroke-dasharray:none"><path id="rect1260" width="129.29953" height="130.30968" style="stroke: rgb(0, 0, 0); stroke-opacity: 1; stroke-width: 0.755906; stroke-miterlimit: 4;" d="M-158.59395 25.743584 L-29.294420000000002 25.743584 L-29.294420000000002 156.05326399999998 L-158.59395 156.05326399999998 Z" class="vYHYDSoN_8"></path></flowregion><flowpara id="flowPara1264" style="font-style:normal;font-variant:normal;font-weight:normal;font-stretch:normal;font-size:37.33333206px;font-family:'Bauhaus 93';-inkscape-font-specification:'Bauhaus 93, ';stroke:#000000;stroke-opacity:1;stroke-width:0.75590552;stroke-miterlimit:4;stroke-dasharray:none">220</flowpara></flowroot>    <flowroot xml:space="preserve" id="flowRoot1268" style="font-style:normal;font-variant:normal;font-weight:normal;font-stretch:normal;font-size:40px;line-height:1.25;font-family:Bahnschrift;-inkscape-font-specification:Bahnschrift;letter-spacing:0px;word-spacing:0px;fill:#000000;fill-opacity:1;stroke:#000000;stroke-opacity:1;stroke-width:0.62362206;stroke-miterlimit:4;stroke-dasharray:none" transform="matrix(0.26458333,0,0,0.26458333,80.448128,235.26477)"><flowregion id="flowRegion1270" style="stroke:#000000;stroke-opacity:1;stroke-width:0.62362206;stroke-miterlimit:4;stroke-dasharray:none"><path id="rect1272" width="133.34013" height="59.093925" style="stroke: rgb(0, 0, 0); stroke-opacity: 1; stroke-width: 0.623622; stroke-miterlimit: 4;" d="M-182.33253 58.068466 L-48.9924 58.068466 L-48.9924 117.162391 L-182.33253 117.162391 Z" class="vYHYDSoN_9"></path></flowregion><flowpara id="flowPara1274" style="font-style:normal;font-variant:normal;font-weight:normal;font-stretch:normal;font-size:26.66666794px;font-family:'Bauhaus 93';-inkscape-font-specification:'Bauhaus 93, ';stroke:#000000;stroke-opacity:1;stroke-width:0.62362206;stroke-miterlimit:4;stroke-dasharray:none">ptos</flowpara></flowroot>    <path style="opacity: 0.964; fill: rgb(191, 135, 60); fill-opacity: 1; stroke: rgb(0, 0, 0); stroke-width: 0.314977; stroke-miterlimit: 4; stroke-opacity: 1;" d="m 139.227,184.0129 c -10.04189,-1.85451 -18.61125,-6.50811 -25.82936,-14.02666 -9.40853,-9.80014 -13.839351,-21.57749 -13.15975,-34.97925 0.60881,-12.00577 5.82179,-23.14442 14.73317,-31.48058 4.25524,-3.980569 6.93587,-5.782923 12.57117,-8.452394 18.39389,-8.713265 40.29541,-4.867395 54.63549,9.593904 9.00085,9.07692 13.50924,19.92137 13.55783,32.61191 0.0247,6.4509 -0.52026,10.04402 -2.3364,15.40483 -3.40403,10.04791 -11.17634,19.59766 -20.50399,25.19306 -4.54083,2.7239 -12.19329,5.53919 -17.25318,6.34731 -4.35712,0.69589 -12.0355,0.59666 -16.41498,-0.21213 z m -10.96104,-19.5043 c 0.14781,-2.27458 0.18427,-2.31945 1.93851,-2.3854 4.91582,-0.18481 8.27511,-5.7993 6.04007,-10.09497 -1.36218,-2.61807 -3.12577,-3.78913 -6.07457,-4.03367 -2.19753,-0.18224 -3.10305,-0.0108 -4.49861,0.8517 -2.67323,1.65215 -3.36441,3.98196 -3.36441,11.34058 0,3.42048 0.16173,6.38079 0.35941,6.57846 0.19767,0.19768 1.50455,0.29238 2.90418,0.21045 l 2.54479,-0.14896 z m 29.30897,-3.44343 c 0.63336,-0.33897 1.59312,-1.34047 2.1328,-2.22556 l 0.98124,-1.60927 0.002,2.65165 c 0.002,2.95184 0.21633,3.07744 3.63122,2.12899 2.35117,-0.65302 4.25721,-2.8912 4.70147,-5.52072 0.21215,-1.25578 0.618,-2.03784 1.05751,-2.03784 0.53499,0 0.71321,-0.75727 0.71321,-3.03045 v -3.03046 h -2.31169 c -1.8816,0 -2.58638,0.27469 -3.78807,1.47638 -0.97469,0.97455 -1.47651,1.99057 -1.47651,2.98915 0,2.16931 -0.47487,3.11061 -1.56927,3.11061 -0.74159,0 -0.95654,-0.3683 -0.958,-1.64149 -0.004,-3.57818 -3.14537,-6.43973 -7.06918,-6.43973 -6.79597,0 -9.95436,7.67644 -5.07984,12.34652 2.30596,2.20925 5.85,2.53576 9.03309,0.83222 z m -12.03447,-2.00815 c 0,-2.54678 -0.1444,-3.00931 -1.01015,-3.23571 -0.55559,-0.14529 -1.01016,-0.51273 -1.01016,-0.81652 0,-0.3038 0.45457,-0.55237 1.01016,-0.55237 0.89791,0 1.01015,-0.33671 1.01015,-3.03045 0,-2.69374 -0.11224,-3.03046 -1.01015,-3.03046 -0.87547,0 -1.01016,-0.33672 -1.01016,-2.52538 v -2.52538 h -3.07781 -3.07782 l 0.17475,7.19733 c 0.14655,6.03576 0.3289,7.42502 1.12987,8.60808 1.20951,1.78647 3.12775,2.83629 5.22982,2.86219 l 1.6415,0.0202 z m 27.49699,-23.93207 c 1.34477,-0.7621 2.40994,-1.94343 3.28299,-3.64104 1.18697,-2.30799 1.29121,-3.0288 1.2782,-8.83883 -0.0155,-6.96089 -0.75736,-9.3648 -3.57322,-11.57976 -3.46986,-2.72939 -9.30166,-2.44219 -12.18023,0.59983 -2.43951,2.57806 -2.83327,3.80265 -3.07445,9.56173 -0.34272,8.18385 1.25238,12.6235 5.14395,14.31722 2.50797,1.09154 6.80545,0.89409 9.12276,-0.41915 z m -38.10359,-3.6535 v -4.29314 h -1.51523 c -0.83338,0 -1.51523,-0.0932 -1.51523,-0.20719 0,-0.11396 0.68167,-1.64812 1.51483,-3.40927 2.33866,-4.9435 1.89029,-8.57854 -1.46054,-11.84079 -6.58603,-6.41193 -17.653,0.31102 -15.24329,9.25998 0.54958,2.04101 3.8025,5.92165 4.56748,5.44887 0.99821,-0.61693 3.49367,-5.8287 3.39993,-7.10077 -0.11142,-1.51207 0.97915,-2.30295 1.45732,-1.05685 0.17225,0.44888 -1.52623,4.17022 -4.04034,8.85229 -2.38564,4.44282 -4.33753,8.20434 -4.33753,8.35894 0,0.15459 3.86384,0.28108 8.5863,0.28108 h 8.5863 z m 21.46574,0 v -4.04061 l -1.6415,-0.15827 c -0.90282,-0.087 -1.6415,-0.2371 -1.6415,-0.33345 0,-0.0964 0.68167,-1.61612 1.51483,-3.37727 2.33867,-4.9435 1.89029,-8.57854 -1.46054,-11.84079 -6.58602,-6.41193 -17.65299,0.31102 -15.24329,9.25998 0.54959,2.04101 3.80251,5.92165 4.56748,5.44887 0.99822,-0.61693 3.49367,-5.8287 3.39993,-7.10077 -0.11142,-1.51207 0.97915,-2.30295 1.45733,-1.05685 0.17225,0.44888 -1.52624,4.17022 -4.04035,8.85229 -2.38564,4.44282 -4.33752,8.20971 -4.33752,8.37086 0,0.16116 3.92065,0.23083 8.71256,0.15482 l 8.71257,-0.1382 z" id="path1276" inkscape:connector-curvature="0" transform="matrix(0.26458333,0,0,0.26458333,0,217.62498)" class="vYHYDSoN_10"></path>
							    <path style="opacity: 0.964; fill: rgb(191, 135, 60); fill-opacity: 1; stroke: rgb(0, 0, 0); stroke-width: 0.314977; stroke-miterlimit: 4; stroke-opacity: 1;" d="m 167.60598,128.36734 c -0.19098,-0.19098 -0.34724,-2.80949 -0.34724,-5.8189 0,-5.16433 0.0577,-5.47166 1.02669,-5.47166 0.97945,0 1.02012,0.25959 0.88389,5.64095 -0.13219,5.22117 -0.53524,6.67771 -1.56334,5.64961 z" id="path1278" inkscape:connector-curvature="0" transform="matrix(0.26458333,0,0,0.26458333,0,217.62498)" class="vYHYDSoN_11"></path>
							    <path style="opacity: 0.964; fill: rgb(191, 135, 60); fill-opacity: 1; stroke: rgb(0, 0, 0); stroke-width: 0.111361; stroke-miterlimit: 4; stroke-opacity: 1;" d="m 128.68416,155.9626 c -0.28334,-0.2147 -0.54043,-0.40738 -0.57131,-0.42818 -0.0309,-0.0208 2.1e-4,-0.33828 0.0691,-0.70552 0.16719,-0.89118 0.63914,-1.33307 1.42374,-1.33307 1.32783,0 1.99165,1.49862 1.07143,2.41883 -0.54915,0.54915 -1.30747,0.56739 -1.99296,0.0479 z" id="path1280" inkscape:connector-curvature="0" transform="matrix(0.26458333,0,0,0.26458333,0,217.62498)" class="vYHYDSoN_12"></path>
							    <path style="opacity: 0.964; fill: rgb(191, 135, 60); fill-opacity: 1; stroke: rgb(0, 0, 0); stroke-width: 0.111361; stroke-miterlimit: 4; stroke-opacity: 1;" d="m 152.7071,156.30265 c -0.49619,-0.38097 -0.73731,-1.02776 -0.61874,-1.65978 0.32818,-1.74933 2.8485,-1.39644 2.8485,0.39884 0,1.1138 -1.39437,1.90233 -2.22976,1.26094 z" id="path1282" inkscape:connector-curvature="0" transform="matrix(0.26458333,0,0,0.26458333,0,217.62498)" class="vYHYDSoN_13"></path>
							    <path style="opacity: 0.964; fill: rgb(191, 135, 60); fill-opacity: 1; stroke: rgb(0, 0, 0); stroke-width: 0.314977; stroke-miterlimit: 4; stroke-opacity: 1;" d="m 83.41552,272.26147 c -1.77307,-4.37523 -3.833084,-9.33223 -4.577808,-11.01556 l -1.354044,-3.0606 -12.564891,-0.6474 c -6.91069,-0.35607 -12.638012,-0.71867 -12.727381,-0.80578 -0.08937,-0.0871 2.410757,-1.85155 5.555838,-3.92098 29.871124,-19.65486 34.358008,-22.94966 40.565145,-29.78769 5.902301,-6.50222 10.924911,-15.39537 12.466341,-22.07316 0.32452,-1.40593 0.75577,-2.55624 0.95833,-2.55624 0.20256,0 1.78732,1.06671 3.52169,2.37046 3.50909,2.63783 7.07918,7.11694 8.87945,11.14033 0.65256,1.45841 1.27593,2.65165 1.38525,2.65165 0.10933,0 1.74384,-0.58156 3.63226,-1.29236 5.61072,-2.11187 13.24681,-3.7554 19.03641,-4.09724 6.41975,-0.37904 6.24386,-0.64428 3.62813,5.47111 -10.18126,23.80309 -26.05047,42.01595 -49.67344,57.00951 -4.797056,3.04471 -14.639444,8.5689 -15.267098,8.5689 -0.13223,0 -1.691113,-3.57973 -3.464182,-7.95495 z" id="path1288" inkscape:connector-curvature="0" transform="matrix(0.26458333,0,0,0.26458333,0,217.62498)" class="vYHYDSoN_14"></path>
							    <path style="opacity: 0.964; fill: rgb(191, 135, 60); fill-opacity: 1; stroke: rgb(0, 0, 0); stroke-width: 0.314977; stroke-miterlimit: 4; stroke-opacity: 1;" d="m 193.77524,271.04644 c -14.21194,-9.29198 -22.81318,-15.87336 -29.57287,-22.62815 -6.13336,-6.1289 -11.31499,-13.21387 -14.01638,-19.16491 l -1.44285,-3.17854 2.02303,-4.11412 c 1.11267,-2.26276 2.76187,-5.93399 3.66488,-8.15828 1.54832,-3.81379 1.72308,-4.03578 3.06789,-3.89701 2.38401,0.24601 6.30866,1.64025 9.57365,3.40107 l 3.09684,1.67013 4.22676,-3.77247 c 4.70089,-4.19564 9.48983,-8.0075 9.67924,-7.7044 0.0679,0.10868 0.6738,1.8687 1.3464,3.91115 1.87663,5.69863 5.57092,11.2401 11.35414,17.03136 6.18499,6.19357 11.97612,10.5502 24.96019,18.7774 16.01451,10.1474 17.51071,11.17044 16.7158,11.4296 -0.4043,0.13181 -5.73534,0.72018 -11.84676,1.30749 -6.11142,0.58732 -11.58087,1.16585 -12.15433,1.28563 -0.79622,0.1663 -2.15983,2.60859 -5.76938,10.33321 -2.5997,5.56349 -4.74427,10.10642 -4.76572,10.0954 -0.0215,-0.011 -4.58469,-2.99207 -10.14053,-6.62456 z" id="path1290" inkscape:connector-curvature="0" transform="matrix(0.26458333,0,0,0.26458333,0,217.62498)" class="vYHYDSoN_15"></path>
							  </g>
							<style data-made-with="vivus-instant">.vYHYDSoN_0{stroke-dasharray:133 135;stroke-dashoffset:134;animation:vYHYDSoN_draw 2000ms linear 0ms forwards;}.vYHYDSoN_1{stroke-dasharray:83 85;stroke-dashoffset:84;animation:vYHYDSoN_draw 2000ms linear 66ms forwards;}.vYHYDSoN_2{stroke-dasharray:24 26;stroke-dashoffset:25;animation:vYHYDSoN_draw 2000ms linear 133ms forwards;}.vYHYDSoN_3{stroke-dasharray:28 30;stroke-dashoffset:29;animation:vYHYDSoN_draw 2000ms linear 200ms forwards;}.vYHYDSoN_4{stroke-dasharray:22 24;stroke-dashoffset:23;animation:vYHYDSoN_draw 2000ms linear 266ms forwards;}.vYHYDSoN_5{stroke-dasharray:22 24;stroke-dashoffset:23;animation:vYHYDSoN_draw 2000ms linear 333ms forwards;}.vYHYDSoN_6{stroke-dasharray:14 16;stroke-dashoffset:15;animation:vYHYDSoN_draw 2000ms linear 400ms forwards;}.vYHYDSoN_7{stroke-dasharray:14 16;stroke-dashoffset:15;animation:vYHYDSoN_draw 2000ms linear 466ms forwards;}.vYHYDSoN_8{stroke-dasharray:520 522;stroke-dashoffset:521;animation:vYHYDSoN_draw 2000ms linear 533ms forwards;}.vYHYDSoN_9{stroke-dasharray:385 387;stroke-dashoffset:386;animation:vYHYDSoN_draw 2000ms linear 600ms forwards;}.vYHYDSoN_10{stroke-dasharray:781 783;stroke-dashoffset:782;animation:vYHYDSoN_draw 2000ms linear 666ms forwards;}.vYHYDSoN_11{stroke-dasharray:25 27;stroke-dashoffset:26;animation:vYHYDSoN_draw 2000ms linear 733ms forwards;}.vYHYDSoN_12{stroke-dasharray:10 12;stroke-dashoffset:11;animation:vYHYDSoN_draw 2000ms linear 800ms forwards;}.vYHYDSoN_13{stroke-dasharray:10 12;stroke-dashoffset:11;animation:vYHYDSoN_draw 2000ms linear 866ms forwards;}.vYHYDSoN_14{stroke-dasharray:286 288;stroke-dashoffset:287;animation:vYHYDSoN_draw 2000ms linear 933ms forwards;}.vYHYDSoN_15{stroke-dasharray:252 254;stroke-dashoffset:253;animation:vYHYDSoN_draw 2000ms linear 1000ms forwards;}@keyframes vYHYDSoN_draw{100%{stroke-dashoffset:0;}}@keyframes vYHYDSoN_fade{0%{stroke-opacity:1;}94.44444444444444%{stroke-opacity:1;}100%{stroke-opacity:0;}}</style></svg>