<svg xmlns:dc="http://purl.org/dc/elements/1.1/" xmlns:cc="http://creativecommons.org/ns#" xmlns:rdf="http://www.w3.org/1999/02/22-rdf-syntax-ns#" xmlns:svg="http://www.w3.org/2000/svg" xmlns="http://www.w3.org/2000/svg" xmlns:sodipodi="http://sodipodi.sourceforge.net/DTD/sodipodi-0.dtd" xmlns:inkscape="http://www.inkscape.org/namespaces/inkscape" width="300" height="200" viewBox="0 0 79.374998 52.916668" version="1.1" id="svg1925" inkscape:version="0.92.3 (2405546, 2018-03-11)" sodipodi:docname="centroCampo2.svg" style="">
  <defs id="defs1919"></defs>
  <sodipodi:namedview id="base" pagecolor="#ffffff" bordercolor="#666666" borderopacity="1.0" inkscape:pageopacity="0.0" inkscape:pageshadow="2" inkscape:zoom="2.8" inkscape:cx="133.97181" inkscape:cy="103.1931" inkscape:document-units="mm" inkscape:current-layer="layer1" showgrid="false" units="px" inkscape:window-width="1920" inkscape:window-height="986" inkscape:window-x="-11" inkscape:window-y="-11" inkscape:window-maximized="1"></sodipodi:namedview>
  <metadata id="metadata1922">
    <rdf:rdf>
      <cc:work rdf:about="">
        <dc:format>image/svg+xml</dc:format>
        <dc:type rdf:resource="http://purl.org/dc/dcmitype/StillImage"></dc:type>
        <dc:title></dc:title>
      </cc:work>
    </rdf:rdf>
  </metadata>
  <g inkscape:label="Capa 1" inkscape:groupmode="layer" id="layer1" transform="translate(0,-244.08332)">
    <path style="fill:none;stroke:#000000;stroke-width:0.26458332px;stroke-linecap:butt;stroke-linejoin:miter;stroke-opacity:1" d="m 4.6468335,248.185 c 0,45.01821 -0.194884,45.11566 -0.194884,45.11566" id="path1824" inkscape:connector-curvature="0" class="WmDCfPuV_0"></path>
    <path style="fill:none;stroke:#000000;stroke-width:0.26458332px;stroke-linecap:butt;stroke-linejoin:miter;stroke-opacity:1" d="m 75.487178,247.30803 v 45.79774" id="path1828" inkscape:connector-curvature="0" class="WmDCfPuV_1"></path>
    <path style="opacity: 0.964; fill: none; fill-opacity: 1; stroke: rgb(0, 0, 0); stroke-width: 0.523; stroke-miterlimit: 4; stroke-opacity: 1;" id="path1830" d="M27.740591000000002,269.08633A12.521299,12.423857 0,1,1 52.783189,269.08633A12.521299,12.423857 0,1,1 27.740591000000002,269.08633" class="WmDCfPuV_2"></path>
    <path style="fill:none;stroke:#000000;stroke-width:0.26458332px;stroke-linecap:butt;stroke-linejoin:miter;stroke-opacity:1" d="m 4.6468335,268.74527 c 70.7429015,0 70.7429015,0 70.7429015,0" id="path1832" inkscape:connector-curvature="0" class="WmDCfPuV_3"></path>
    <path style="opacity: 0.964; fill: rgb(255, 102, 0); fill-opacity: 1; stroke: rgb(0, 0, 0); stroke-width: 0.192613; stroke-miterlimit: 4; stroke-opacity: 1;" d="m 28.072841,268.27241 c 0,-1.01553 0.564206,-3.13945 1.160995,-4.37049 1.670422,-3.44571 4.832357,-5.88527 8.703237,-6.7149 1.29123,-0.27674 3.617036,-0.23721 5.003839,0.085 3.605088,0.83775 6.52367,3.09321 8.165645,6.31036 0.76766,1.50409 1.326788,3.43861 1.326788,4.59054 v 0.379 H 40.253092 28.072841 Z" id="path1834" inkscape:connector-curvature="0" class="WmDCfPuV_4"></path>
    <path style="opacity: 0.964; fill: rgb(191, 135, 60); fill-opacity: 1; stroke: rgb(0, 0, 0); stroke-width: 0.192613; stroke-miterlimit: 4; stroke-opacity: 1;" d="m 39.181231,281.164 c -0.133985,-0.0234 -0.572474,-0.0907 -0.974421,-0.1494 -1.546556,-0.22597 -3.36931,-0.96203 -4.871327,-1.96713 -0.94914,-0.63513 -2.5616,-2.25191 -3.20593,-3.21451 -1.254826,-1.87466 -2.056712,-4.31949 -2.056712,-6.27061 v -0.62061 h 12.180251 12.180253 v 0.66933 c 0,1.45547 -0.485421,3.32619 -1.26805,4.88682 -1.66891,3.32798 -4.907328,5.76836 -8.597742,6.47904 -0.79357,0.15282 -2.912932,0.2699 -3.386322,0.18707 z" id="path1836" inkscape:connector-curvature="0" class="WmDCfPuV_5"></path>
    <path style="opacity: 0.964; fill: rgb(191, 135, 60); fill-opacity: 1; stroke: rgb(0, 0, 0); stroke-width: 0; stroke-miterlimit: 4; stroke-opacity: 1;" d="m 28.230387,267.89424 c 0.0996,-0.90293 0.581499,-2.65568 0.991804,-3.60739 1.060247,-2.45927 3.196285,-4.65416 5.76491,-5.92375 1.051861,-0.5199 2.446454,-0.96526 3.506663,-1.11984 1.12753,-0.16439 3.505967,-0.0647 4.536427,0.1902 3.370926,0.83377 6.137788,2.94154 7.815897,5.95409 0.676331,1.21415 1.279052,3.10074 1.439783,4.50669 l 0.06405,0.56029 H 40.259252 28.168581 Z" id="path1838" inkscape:connector-curvature="0" class="WmDCfPuV_6"></path>
    <path style="opacity: 0.964; fill: rgb(0, 0, 0); fill-opacity: 1; stroke: rgb(0, 0, 0); stroke-width: 0; stroke-miterlimit: 4; stroke-opacity: 1;" id="path1840" d="M12.5396377,255.98036A2.3386083,2.3386083 0,1,1 17.2168543,255.98036A2.3386083,2.3386083 0,1,1 12.5396377,255.98036" class="WmDCfPuV_7"></path>
    <path style="opacity: 0.964; fill: rgb(0, 0, 0); fill-opacity: 1; stroke: rgb(0, 0, 0); stroke-width: 0; stroke-miterlimit: 4; stroke-opacity: 1;" id="path1840-7" d="M33.976882700000004,247.21059A2.3386083,2.3386083 0,1,1 38.6540993,247.21059A2.3386083,2.3386083 0,1,1 33.976882700000004,247.21059" class="WmDCfPuV_8"></path>
    <path style="opacity: 0.964; fill: rgb(0, 0, 0); fill-opacity: 1; stroke: rgb(0, 0, 0); stroke-width: 0; stroke-miterlimit: 4; stroke-opacity: 1;" id="path1840-8" d="M60.5785477,258.80618A2.3386083,2.3386083 0,1,1 65.2557643,258.80618A2.3386083,2.3386083 0,1,1 60.5785477,258.80618" class="WmDCfPuV_9"></path>
    <path style="opacity: 0.964; fill: rgb(0, 0, 0); fill-opacity: 1; stroke: rgb(0, 0, 0); stroke-width: 0; stroke-miterlimit: 4; stroke-opacity: 1;" id="path1840-79" d="M35.5359527,286.38226A2.3386083,2.3386083 0,1,1 40.2131693,286.38226A2.3386083,2.3386083 0,1,1 35.5359527,286.38226" class="WmDCfPuV_10"></path>
    <path style="fill: none; stroke: rgb(0, 0, 0); stroke-width: 0.465; stroke-linecap: butt; stroke-linejoin: miter; stroke-miterlimit: 4; stroke-opacity: 1;" d="m 24.427563,252.76478 c 2.923259,4.19 2.923259,4.19 2.923259,4.19" id="path1871" inkscape:connector-curvature="0" class="WmDCfPuV_11"></path>
    <path style="fill: none; stroke: rgb(0, 0, 0); stroke-width: 0.565; stroke-linecap: butt; stroke-linejoin: miter; stroke-miterlimit: 4; stroke-opacity: 1;" d="m 27.155938,252.95966 c -2.825817,3.60536 -2.825817,3.60536 -2.825817,3.60536" id="path1873" inkscape:connector-curvature="0" class="WmDCfPuV_12"></path>
    <path style="fill: none; stroke: rgb(0, 0, 0); stroke-width: 0.465; stroke-linecap: butt; stroke-linejoin: miter; stroke-miterlimit: 4; stroke-opacity: 1;" d="m 54.017048,257.88049 c 2.923257,4.19 2.923257,4.19 2.923257,4.19" id="path1871-4" inkscape:connector-curvature="0" class="WmDCfPuV_13"></path>
    <path style="fill: none; stroke: rgb(0, 0, 0); stroke-width: 0.565; stroke-linecap: butt; stroke-linejoin: miter; stroke-miterlimit: 4; stroke-opacity: 1;" d="m 56.745421,258.07537 c -2.825816,3.60536 -2.825816,3.60536 -2.825816,3.60536" id="path1873-7" inkscape:connector-curvature="0" class="WmDCfPuV_14"></path>
    <path style="fill: none; stroke: rgb(0, 0, 0); stroke-width: 0.465; stroke-linecap: butt; stroke-linejoin: miter; stroke-miterlimit: 4; stroke-opacity: 1;" d="m 18.548154,274.25074 c 2.923259,4.19 2.923259,4.19 2.923259,4.19" id="path1871-45" inkscape:connector-curvature="0" class="WmDCfPuV_15"></path>
    <path style="fill: none; stroke: rgb(0, 0, 0); stroke-width: 0.565; stroke-linecap: butt; stroke-linejoin: miter; stroke-miterlimit: 4; stroke-opacity: 1;" d="m 21.276529,274.44562 c -2.825817,3.60536 -2.825817,3.60536 -2.825817,3.60536" id="path1873-6" inkscape:connector-curvature="0" class="WmDCfPuV_16"></path>
    <path style="fill: none; stroke: rgb(0, 0, 0); stroke-width: 0.465; stroke-linecap: butt; stroke-linejoin: miter; stroke-miterlimit: 4; stroke-opacity: 1;" d="m 50.216808,281.75378 c 2.923257,4.19 2.923257,4.19 2.923257,4.19" id="path1871-5" inkscape:connector-curvature="0" class="WmDCfPuV_17"></path>
    <path style="fill: none; stroke: rgb(0, 0, 0); stroke-width: 0.565; stroke-linecap: butt; stroke-linejoin: miter; stroke-miterlimit: 4; stroke-opacity: 1;" d="m 52.945184,281.94866 c -2.825819,3.60536 -2.825819,3.60536 -2.825819,3.60536" id="path1873-1" inkscape:connector-curvature="0" class="WmDCfPuV_18"></path>
    <path style="fill: none; stroke: rgb(0, 0, 0); stroke-width: 0.465; stroke-linecap: butt; stroke-linejoin: miter; stroke-miterlimit: 4; stroke-opacity: 1;" d="m 13.124289,258.12409 c -4.7116375,6.79865 -5.8188075,15.26767 0.09744,26.99144" id="path1909" inkscape:connector-curvature="0" sodipodi:nodetypes="cc" class="WmDCfPuV_19"></path>
    <path style="fill: none; stroke: rgb(0, 0, 0); stroke-width: 0.465; stroke-linecap: butt; stroke-linejoin: miter; stroke-miterlimit: 4; stroke-opacity: 1;" d="m 14.196151,280.82808 c 0,0 0.09744,-0.0974 -0.974422,4.28745 -3.8976785,-2.72838 -3.8976785,-2.72838 -3.8976785,-2.72838" id="path1911" inkscape:connector-curvature="0" class="WmDCfPuV_20"></path>
    <path style="fill: none; stroke: rgb(0, 0, 0); stroke-width: 0.465; stroke-linecap: butt; stroke-linejoin: miter; stroke-miterlimit: 4; stroke-opacity: 1;" d="m 35.828277,287.45413 c -22.996314,6.04141 -23.28864,6.04141 -23.28864,6.04141" id="path1913" inkscape:connector-curvature="0" class="WmDCfPuV_21"></path>
    <path style="fill: none; stroke: rgb(0, 0, 0); stroke-width: 0.465; stroke-linecap: butt; stroke-linejoin: miter; stroke-miterlimit: 4; stroke-opacity: 1;" d="m 12.539637,293.49554 c 3.313028,-3.50791 3.313028,-3.50791 3.313028,-3.50791" id="path1915" inkscape:connector-curvature="0" class="WmDCfPuV_22"></path>
    <path style="fill: none; stroke: rgb(0, 0, 0); stroke-width: 0.465; stroke-linecap: butt; stroke-linejoin: miter; stroke-miterlimit: 4; stroke-opacity: 1;" d="m 12.539637,293.49554 c 4.092564,1.1693 4.092564,1.1693 4.092564,1.1693" id="path1917" inkscape:connector-curvature="0" class="WmDCfPuV_23"></path>
  </g>
  <style data-made-with="vivus-instant">.WmDCfPuV_0{stroke-dasharray:46 48;stroke-dashoffset:47;animation:WmDCfPuV_draw 4000ms linear 0ms forwards;}.WmDCfPuV_1{stroke-dasharray:46 48;stroke-dashoffset:47;animation:WmDCfPuV_draw 4000ms linear 0ms forwards;}.WmDCfPuV_2{stroke-dasharray:79 81;stroke-dashoffset:80;animation:WmDCfPuV_draw 4000ms linear 0ms forwards;}.WmDCfPuV_3{stroke-dasharray:71 73;stroke-dashoffset:72;animation:WmDCfPuV_draw 4000ms linear 0ms forwards;}.WmDCfPuV_4{stroke-dasharray:62 64;stroke-dashoffset:63;animation:WmDCfPuV_draw 4000ms linear 0ms forwards;}.WmDCfPuV_5{stroke-dasharray:63 65;stroke-dashoffset:64;animation:WmDCfPuV_draw 4000ms linear 0ms forwards;}.WmDCfPuV_6{stroke-dasharray:61 63;stroke-dashoffset:62;animation:WmDCfPuV_draw 4000ms linear 0ms forwards;}.WmDCfPuV_7{stroke-dasharray:15 17;stroke-dashoffset:16;animation:WmDCfPuV_draw 4000ms linear 0ms forwards;}.WmDCfPuV_8{stroke-dasharray:15 17;stroke-dashoffset:16;animation:WmDCfPuV_draw 4000ms linear 0ms forwards;}.WmDCfPuV_9{stroke-dasharray:15 17;stroke-dashoffset:16;animation:WmDCfPuV_draw 4000ms linear 0ms forwards;}.WmDCfPuV_10{stroke-dasharray:15 17;stroke-dashoffset:16;animation:WmDCfPuV_draw 4000ms linear 0ms forwards;}.WmDCfPuV_11{stroke-dasharray:6 8;stroke-dashoffset:7;animation:WmDCfPuV_draw 4000ms linear 0ms forwards;}.WmDCfPuV_12{stroke-dasharray:5 7;stroke-dashoffset:6;animation:WmDCfPuV_draw 4000ms linear 0ms forwards;}.WmDCfPuV_13{stroke-dasharray:6 8;stroke-dashoffset:7;animation:WmDCfPuV_draw 4000ms linear 0ms forwards;}.WmDCfPuV_14{stroke-dasharray:5 7;stroke-dashoffset:6;animation:WmDCfPuV_draw 4000ms linear 0ms forwards;}.WmDCfPuV_15{stroke-dasharray:6 8;stroke-dashoffset:7;animation:WmDCfPuV_draw 4000ms linear 0ms forwards;}.WmDCfPuV_16{stroke-dasharray:5 7;stroke-dashoffset:6;animation:WmDCfPuV_draw 4000ms linear 0ms forwards;}.WmDCfPuV_17{stroke-dasharray:6 8;stroke-dashoffset:7;animation:WmDCfPuV_draw 4000ms linear 0ms forwards;}.WmDCfPuV_18{stroke-dasharray:5 7;stroke-dashoffset:6;animation:WmDCfPuV_draw 4000ms linear 0ms forwards;}.WmDCfPuV_19{stroke-dasharray:29 31;stroke-dashoffset:30;animation:WmDCfPuV_draw 4000ms linear 0ms forwards;}.WmDCfPuV_20{stroke-dasharray:10 12;stroke-dashoffset:11;animation:WmDCfPuV_draw 4000ms linear 0ms forwards;}.WmDCfPuV_21{stroke-dasharray:25 27;stroke-dashoffset:26;animation:WmDCfPuV_draw 4000ms linear 0ms forwards;}.WmDCfPuV_22{stroke-dasharray:5 7;stroke-dashoffset:6;animation:WmDCfPuV_draw 4000ms linear 0ms forwards;}.WmDCfPuV_23{stroke-dasharray:5 7;stroke-dashoffset:6;animation:WmDCfPuV_draw 4000ms linear 0ms forwards;}@keyframes WmDCfPuV_draw{100%{stroke-dashoffset:0;}}@keyframes WmDCfPuV_fade{0%{stroke-opacity:1;}95.1219512195122%{stroke-opacity:1;}100%{stroke-opacity:0;}}</style>
</svg>