<svg xmlns:dc="http://purl.org/dc/elements/1.1/" xmlns:cc="http://creativecommons.org/ns#" xmlns:rdf="http://www.w3.org/1999/02/22-rdf-syntax-ns#" xmlns:svg="http://www.w3.org/2000/svg" xmlns="http://www.w3.org/2000/svg" xmlns:sodipodi="http://sodipodi.sourceforge.net/DTD/sodipodi-0.dtd" xmlns:inkscape="http://www.inkscape.org/namespaces/inkscape" version="1.1" id="porteriasvg" x="0px" y="0px" width="300" height="200" viewBox="0 0 300 200" xml:space="preserve" sodipodi:docname="porteria.svg" inkscape:version="0.92.3 (2405546, 2018-03-11)">
  <metadata id="metadata5773"><rdf:rdf><cc:work rdf:about=""><dc:format>image/svg+xml</dc:format><dc:type rdf:resource="http://purl.org/dc/dcmitype/StillImage"></dc:type><dc:title></dc:title></cc:work></rdf:rdf></metadata>
  <defs id="defs5771"></defs>
  <sodipodi:namedview pagecolor="#ffffff" bordercolor="#666666" borderopacity="1" objecttolerance="10" gridtolerance="10" guidetolerance="10" inkscape:pageopacity="0" inkscape:pageshadow="2" inkscape:window-width="1920" inkscape:window-height="986" id="namedview5769" showgrid="false" inkscape:zoom="2.7245257" inkscape:cx="94.439144" inkscape:cy="121.16249" inkscape:window-x="-11" inkscape:window-y="-11" inkscape:window-maximized="1" inkscape:current-layer="Capa_1"></sodipodi:namedview>
  <g id="g5738" transform="translate(0,-780)"></g>
  <g id="g5740" transform="translate(0,-780)"></g>
  <g id="g5742" transform="translate(0,-780)"></g>
  <g id="g5744" transform="translate(0,-780)"></g>
  <g id="g5746" transform="translate(0,-780)"></g>
  <g id="g5748" transform="translate(0,-780)"></g>
  <g id="g5750" transform="translate(0,-780)"></g>
  <g id="g5752" transform="translate(0,-780)"></g>
  <g id="g5754" transform="translate(0,-780)"></g>
  <g id="g5756" transform="translate(0,-780)"></g>
  <g id="g5758" transform="translate(0,-780)"></g>
  <g id="g5760" transform="translate(0,-780)"></g>
  <g id="g5762" transform="translate(0,-780)"></g>
  <g id="g5764" transform="translate(0,-780)"></g>
  <g id="g5766" transform="translate(0,-780)"></g>
  <path style="fill:none;stroke:#000000;stroke-width:2.9000001;stroke-linecap:butt;stroke-linejoin:miter;stroke-miterlimit:4;stroke-dasharray:none;stroke-opacity:1" d="m -1.0381356,141.05508 c 301.0593256,0 301.0593256,1.03814 301.0593256,1.03814 v 1.03814" id="path6318" inkscape:connector-curvature="0"></path>
  <path style="fill:none;stroke:#000000;stroke-width:1px;stroke-linecap:butt;stroke-linejoin:miter;stroke-opacity:1" d="m 505.57203,131.48305 6.22882,-2.07627" id="path6320" inkscape:connector-curvature="0"></path>
  <path style="fill:none;stroke:#000000;stroke-width:2.93054366;stroke-linecap:butt;stroke-linejoin:miter;stroke-miterlimit:4;stroke-dasharray:none;stroke-opacity:1" d="M 32.173294,141.87213 C -1.0292265,182.34398 -1.0292265,182.34398 -1.0292265,182.34398" id="path6324" inkscape:connector-curvature="0"></path>
  <path style="fill:none;stroke:#000000;stroke-width:1px;stroke-linecap:butt;stroke-linejoin:miter;stroke-opacity:1" d="M -94.470339,88.919491 Z" id="path6326" inkscape:connector-curvature="0"></path>
  <path style="fill:none;stroke:#000000;stroke-width:3.49777293;stroke-linecap:butt;stroke-linejoin:miter;stroke-miterlimit:4;stroke-dasharray:none;stroke-opacity:1" d="m 267.99153,142.90254 c 35.4177,40.63663 34.10593,39.44144 34.10593,39.44144 v 0" id="path6328" inkscape:connector-curvature="0"></path>
  <path style="fill:none;stroke:#000000;stroke-width:1px;stroke-linecap:butt;stroke-linejoin:miter;stroke-opacity:1" d="M 386.18644,166.77966 Z" id="path6330" inkscape:connector-curvature="0"></path>
  <path style="fill:none;stroke:#000000;stroke-width:1px;stroke-linecap:butt;stroke-linejoin:miter;stroke-opacity:1" d="M 494.15254,-91.716102 Z" id="path6332" inkscape:connector-curvature="0"></path>
  <path style="fill:none;stroke:#000000;stroke-width:2.9;stroke-linecap:butt;stroke-linejoin:miter;stroke-opacity:1;stroke-miterlimit:4;stroke-dasharray:none" d="m -1.0292265,182.34398 c 303.1266865,0 303.1266865,0 303.1266865,0" id="path6336" inkscape:connector-curvature="0"></path>
  <path style="fill:none;stroke:#000000;stroke-width:3;stroke-linecap:butt;stroke-linejoin:miter;stroke-opacity:1;stroke-miterlimit:4;stroke-dasharray:none" d="m 68.516949,140.75 c 0,-84.088983 0,-85.127119 0,-85.127119" id="path6340" inkscape:connector-curvature="0"></path>
  <path style="fill:none;stroke:#000000;stroke-width:1px;stroke-linecap:butt;stroke-linejoin:miter;stroke-opacity:1" d="M 487.92373,61.927966 Z" id="path6342" inkscape:connector-curvature="0"></path>
  <path style="fill:none;stroke:#000000;stroke-width:1px;stroke-linecap:butt;stroke-linejoin:miter;stroke-opacity:1" d="M 622.88136,-108.32627 Z" id="path6344" inkscape:connector-curvature="0"></path>
  <path style="fill:none;stroke:#000000;stroke-width:3.003;stroke-linecap:butt;stroke-linejoin:miter;stroke-opacity:1;stroke-miterlimit:4;stroke-dasharray:none" d="m 225.27542,141.26906 c 0,-84.601713 0,-85.646179 0,-85.646179" id="path6340-9" inkscape:connector-curvature="0"></path>
  <path style="fill:none;stroke:#000000;stroke-width:3;stroke-linecap:butt;stroke-linejoin:miter;stroke-miterlimit:4;stroke-dasharray:none;stroke-opacity:1" d="m 68.516949,57.622881 c 156.758471,0 156.758471,0 156.758471,0" id="path6363" inkscape:connector-curvature="0"></path>
  <path style="fill:none;stroke:#000000;stroke-width:1px;stroke-linecap:butt;stroke-linejoin:miter;stroke-opacity:1" d="m 482.73305,73.347457 5.19068,-11.419491" id="path6365" inkscape:connector-curvature="0"></path>
  <path style="fill:none;stroke:#000000;stroke-width:1px;stroke-linecap:butt;stroke-linejoin:miter;stroke-opacity:1" d="M 68.516949,140.75 C 82.53178,121.10169 82.53178,121.10169 82.53178,121.10169 l -0.519068,0.51907" id="path6367" inkscape:connector-curvature="0"></path>
  <path style="fill:none;stroke:#000000;stroke-width:1.02500391px;stroke-linecap:butt;stroke-linejoin:miter;stroke-opacity:1" d="m 82.012712,121.62076 c 129.247878,0 129.247878,0 129.247878,0" id="path6369" inkscape:connector-curvature="0"></path>
  <path style="fill:none;stroke:#000000;stroke-width:1px;stroke-linecap:butt;stroke-linejoin:miter;stroke-opacity:1" d="M 345.69915,119.54449 Z" id="path6371" inkscape:connector-curvature="0"></path>
  <path style="fill:none;stroke:#000000;stroke-width:0.82710081px;stroke-linecap:butt;stroke-linejoin:miter;stroke-opacity:1" d="m 225.33496,141.33028 c -14.1339,-19.25167 -14.1339,-19.25167 -14.1339,-19.25167" id="path6373" inkscape:connector-curvature="0"></path>
  <path style="fill:none;stroke:#000000;stroke-width:1px;stroke-linecap:butt;stroke-linejoin:miter;stroke-opacity:1" d="M 342.58475,111.75847 Z" id="path6375" inkscape:connector-curvature="0"></path>
  <path style="fill:none;stroke:#000000;stroke-width:1px;stroke-linecap:butt;stroke-linejoin:miter;stroke-opacity:1" d="m 68.516949,57.622881 c 7.602804,8.139706 16.553629,10.550325 13.495763,63.997879 v 0 l 0.519068,-0.51907" id="path6377" inkscape:connector-curvature="0" sodipodi:nodetypes="cccc"></path>
  <path style="fill:none;stroke:#000000;stroke-width:1px;stroke-linecap:butt;stroke-linejoin:miter;stroke-opacity:1" d="m 225.27542,57.622881 c -17.33298,16.46287 -13.80652,40.948598 -14.01483,63.997879 v 0" id="path6381" inkscape:connector-curvature="0" sodipodi:nodetypes="ccc"></path>
  <path style="fill:none;stroke:#000000;stroke-width:1px;stroke-linecap:butt;stroke-linejoin:miter;stroke-opacity:1" d="M 118.86653,78.278601 Z" id="path6465" inkscape:connector-curvature="0"></path>
  <path style="fill:none;stroke:#000000;stroke-width:1px;stroke-linecap:butt;stroke-linejoin:miter;stroke-opacity:1" d="m 77.600636,68.416313 c 7.007415,-9.862288 7.007415,-9.862288 7.007415,-9.862288" id="path6536" inkscape:connector-curvature="0"></path>
  <path style="fill:none;stroke:#000000;stroke-width:1px;stroke-linecap:butt;stroke-linejoin:miter;stroke-opacity:1" d="M 80.195975,73.347457 C 91.355932,58.294491 91.355932,58.294491 91.355932,58.294491" id="path6538" inkscape:connector-curvature="0"></path>
  <path style="fill:none;stroke:#000000;stroke-width:1px;stroke-linecap:butt;stroke-linejoin:miter;stroke-opacity:1" d="M 81.23411,81.393008 C 97.584746,58.813559 97.325212,58.554025 97.325212,58.554025" id="path6540" inkscape:connector-curvature="0"></path>
  <path style="fill:none;stroke:#000000;stroke-width:1px;stroke-linecap:butt;stroke-linejoin:miter;stroke-opacity:1" d="M 82.272246,88.919491 C 104.33263,57.775423 104.33263,57.775423 104.33263,57.775423" id="path6542" inkscape:connector-curvature="0"></path>
  <path style="fill:none;stroke:#000000;stroke-width:1px;stroke-linecap:butt;stroke-linejoin:miter;stroke-opacity:1" d="M 82.791314,94.888771 C 110.30191,58.554025 110.30191,58.554025 110.30191,58.554025" id="path6544" inkscape:connector-curvature="0"></path>
  <path style="fill:none;stroke:#000000;stroke-width:1px;stroke-linecap:butt;stroke-linejoin:miter;stroke-opacity:1" d="M 83.050848,102.15572 C 116.79025,58.554025 116.79025,58.554025 116.79025,58.554025" id="path6546" inkscape:connector-curvature="0"></path>
  <path style="fill:none;stroke:#000000;stroke-width:1px;stroke-linecap:butt;stroke-linejoin:miter;stroke-opacity:1" d="M 82.53178,108.9036 C 122.75953,58.554025 122.75953,58.554025 122.75953,58.554025" id="path6548" inkscape:connector-curvature="0"></path>
  <path style="fill:none;stroke:#000000;stroke-width:1px;stroke-linecap:butt;stroke-linejoin:miter;stroke-opacity:1" d="m 82.53178,114.87288 c 47.4947,-56.059321 47.4947,-56.059321 47.4947,-56.059321" id="path6550" inkscape:connector-curvature="0"></path>
  <path style="fill:none;stroke:#000000;stroke-width:1px;stroke-linecap:butt;stroke-linejoin:miter;stroke-opacity:1" d="M 82.53178,121.10169 C 139.88877,58.554025 139.88877,58.554025 139.88877,58.554025" id="path6552" inkscape:connector-curvature="0"></path>
  <path style="fill:none;stroke:#000000;stroke-width:1px;stroke-linecap:butt;stroke-linejoin:miter;stroke-opacity:1" d="M 91.096398,121.36123 C 148.45339,58.813559 148.45339,58.813559 148.45339,58.813559" id="path6554" inkscape:connector-curvature="0"></path>
  <path style="fill:none;stroke:#000000;stroke-width:1px;stroke-linecap:butt;stroke-linejoin:miter;stroke-opacity:1" d="M 101.73729,121.10169 C 157.27754,58.813559 157.27754,58.813559 157.27754,58.813559" id="path6556" inkscape:connector-curvature="0"></path>
  <path style="fill:none;stroke:#000000;stroke-width:1px;stroke-linecap:butt;stroke-linejoin:miter;stroke-opacity:1" d="m 110.82097,121.36123 c 57.357,-62.547671 57.09746,-62.807205 57.09746,-62.807205" id="path6558" inkscape:connector-curvature="0"></path>
  <path style="fill:none;stroke:#000000;stroke-width:1px;stroke-linecap:butt;stroke-linejoin:miter;stroke-opacity:1" d="M 119.12606,121.36123 C 173.88771,58.034957 173.88771,58.034957 173.88771,58.034957" id="path6560" inkscape:connector-curvature="0"></path>
  <path style="fill:none;stroke:#000000;stroke-width:1px;stroke-linecap:butt;stroke-linejoin:miter;stroke-opacity:1" d="M 129.24788,121.36123 C 180.89513,58.294491 180.63559,57.256356 180.89513,58.294491" id="path6562" inkscape:connector-curvature="0"></path>
  <path style="fill:none;stroke:#000000;stroke-width:1px;stroke-linecap:butt;stroke-linejoin:miter;stroke-opacity:1" d="M 138.07203,121.10169 C 188.16208,57.775423 188.16208,57.775423 188.16208,57.775423" id="path6564" inkscape:connector-curvature="0"></path>
  <path style="fill:none;stroke:#000000;stroke-width:1px;stroke-linecap:butt;stroke-linejoin:miter;stroke-opacity:1" d="M 146.89619,122.13983 C 197.24576,58.034957 197.24576,58.034957 197.24576,58.034957" id="path6566" inkscape:connector-curvature="0"></path>
  <path style="fill:none;stroke:#000000;stroke-width:1px;stroke-linecap:butt;stroke-linejoin:miter;stroke-opacity:1" d="M 159.61335,121.62076 C 203.73411,58.034957 203.99364,57.775423 203.99364,57.775423" id="path6568" inkscape:connector-curvature="0"></path>
  <path style="fill:none;stroke:#000000;stroke-width:1px;stroke-linecap:butt;stroke-linejoin:miter;stroke-opacity:1" d="M 168.95657,121.62076 C 210.22246,58.813559 210.48199,58.554025 210.48199,58.554025" id="path6570" inkscape:connector-curvature="0"></path>
  <path style="fill:none;stroke:#000000;stroke-width:1px;stroke-linecap:butt;stroke-linejoin:miter;stroke-opacity:1" d="M 179.59746,121.8803 C 216.45127,59.073093 215.67267,58.034957 215.67267,58.034957" id="path6572" inkscape:connector-curvature="0"></path>
  <path style="fill:none;stroke:#000000;stroke-width:1px;stroke-linecap:butt;stroke-linejoin:miter;stroke-opacity:1" d="M 187.38347,121.10169 C 219.82521,59.073093 219.82521,59.073093 219.82521,59.073093" id="path6574" inkscape:connector-curvature="0"></path>
  <path style="fill:none;stroke:#000000;stroke-width:1px;stroke-linecap:butt;stroke-linejoin:miter;stroke-opacity:1" d="M 195.94809,120.84216 C 211.77966,88.919491 211.77966,88.919491 211.77966,88.919491" id="path6576" inkscape:connector-curvature="0"></path>
  <path style="fill:none;stroke:#000000;stroke-width:1px;stroke-linecap:butt;stroke-linejoin:miter;stroke-opacity:1" d="m 202.69598,121.10169 c 8.82415,-20.50317 8.82415,-20.24364 8.82415,-20.24364" id="path6578" inkscape:connector-curvature="0"></path>
  <path style="fill:none;stroke:#000000;stroke-width:1px;stroke-linecap:butt;stroke-linejoin:miter;stroke-opacity:1" d="m 207.62712,120.84216 c 3.37394,-7.26695 3.37394,-7.26695 3.37394,-7.26695" id="path6580" inkscape:connector-curvature="0"></path>
  <path style="fill:none;stroke:#000000;stroke-width:1px;stroke-linecap:butt;stroke-linejoin:miter;stroke-opacity:1" d="m 210.48199,58.554025 c 8.30509,8.045551 8.30509,8.045551 8.30509,8.045551" id="path6584" inkscape:connector-curvature="0"></path>
  <path style="fill:none;stroke:#000000;stroke-width:1px;stroke-linecap:butt;stroke-linejoin:miter;stroke-opacity:1" d="M 203.99364,57.775423 C 215.9322,70.233051 215.9322,70.233051 215.9322,70.233051" id="path6586" inkscape:connector-curvature="0"></path>
  <path style="fill:none;stroke:#000000;stroke-width:1px;stroke-linecap:butt;stroke-linejoin:miter;stroke-opacity:1" d="M 192.83369,58.034957 C 213.5964,76.20233 213.5964,76.20233 213.5964,76.20233" id="path6588" inkscape:connector-curvature="0"></path>
  <path style="fill:none;stroke:#000000;stroke-width:1px;stroke-linecap:butt;stroke-linejoin:miter;stroke-opacity:1" d="m 188.16208,57.775423 c 24.13665,23.877119 24.13665,23.877119 24.13665,23.877119" id="path6590" inkscape:connector-curvature="0"></path>
  <path style="fill:none;stroke:#000000;stroke-width:1px;stroke-linecap:butt;stroke-linejoin:miter;stroke-opacity:1" d="m 173.88771,58.034957 c 37.89195,30.884534 37.89195,30.884534 37.89195,30.884534" id="path6592" inkscape:connector-curvature="0"></path>
  <path style="fill:none;stroke:#000000;stroke-width:1px;stroke-linecap:butt;stroke-linejoin:miter;stroke-opacity:1" d="m 163.50636,57.51589 c 47.23517,36.853813 47.4947,37.113347 47.4947,37.113347" id="path6594" inkscape:connector-curvature="0"></path>
  <path style="fill:none;stroke:#000000;stroke-width:1px;stroke-linecap:butt;stroke-linejoin:miter;stroke-opacity:1" d="m 157.27754,58.813559 c 54.24259,42.044491 54.24259,42.044491 54.24259,42.044491" id="path6596" inkscape:connector-curvature="0"></path>
  <path style="fill:none;stroke:#000000;stroke-width:1px;stroke-linecap:butt;stroke-linejoin:miter;stroke-opacity:1" d="m 148.45339,58.813559 c 62.54767,46.456571 62.54767,46.456571 62.54767,46.456571" id="path6598" inkscape:connector-curvature="0"></path>
  <path style="fill:none;stroke:#000000;stroke-width:1px;stroke-linecap:butt;stroke-linejoin:miter;stroke-opacity:1" d="m 139.88877,58.554025 c 71.37182,51.387715 71.37182,51.387715 71.37182,51.387715" id="path6600" inkscape:connector-curvature="0"></path>
  <path style="fill:none;stroke:#000000;stroke-width:1px;stroke-linecap:butt;stroke-linejoin:miter;stroke-opacity:1" d="m 130.02648,58.813559 c 80.97458,54.761651 80.97458,54.761651 80.97458,54.761651" id="path6602" inkscape:connector-curvature="0"></path>
  <path style="fill:none;stroke:#000000;stroke-width:1px;stroke-linecap:butt;stroke-linejoin:miter;stroke-opacity:1" d="m 122.75953,58.554025 c 88.50106,63.066735 88.50106,63.066735 88.50106,63.066735" id="path6604" inkscape:connector-curvature="0"></path>
  <path style="fill:none;stroke:#000000;stroke-width:1px;stroke-linecap:butt;stroke-linejoin:miter;stroke-opacity:1" d="m 110.30191,58.554025 c 89.27966,61.509535 89.27966,61.769065 89.27966,61.769065" id="path6606" inkscape:connector-curvature="0"></path>
  <path style="fill:none;stroke:#000000;stroke-width:1px;stroke-linecap:butt;stroke-linejoin:miter;stroke-opacity:1" d="m 104.33263,57.775423 c 87.20339,63.585807 87.46292,63.585807 87.46292,63.585807" id="path6608" inkscape:connector-curvature="0"></path>
  <path style="fill:none;stroke:#000000;stroke-width:1px;stroke-linecap:butt;stroke-linejoin:miter;stroke-opacity:1" d="M 97.325212,58.554025 C 179.59746,121.8803 179.59746,121.8803 179.59746,121.8803" id="path6610" inkscape:connector-curvature="0"></path>
  <path style="fill:none;stroke:#000000;stroke-width:1px;stroke-linecap:butt;stroke-linejoin:miter;stroke-opacity:1" d="m 88.50106,58.294491 c 80.45551,63.326269 80.45551,63.326269 80.45551,63.326269" id="path6612" inkscape:connector-curvature="0"></path>
  <path style="fill:none;stroke:#000000;stroke-width:1px;stroke-linecap:butt;stroke-linejoin:miter;stroke-opacity:1" d="M 80.715043,57.775423 C 157.01801,121.36123 159.61335,121.62076 159.61335,121.62076" id="path6614" inkscape:connector-curvature="0"></path>
  <path style="fill:none;stroke:#000000;stroke-width:1px;stroke-linecap:butt;stroke-linejoin:miter;stroke-opacity:1" d="M 75.264831,57.775423 C 146.89619,122.13983 146.89619,122.13983 146.89619,122.13983" id="path6616" inkscape:connector-curvature="0"></path>
  <path style="fill:none;stroke:#000000;stroke-width:1px;stroke-linecap:butt;stroke-linejoin:miter;stroke-opacity:1" d="M 77.600636,68.416313 C 138.07203,121.10169 138.07203,121.10169 138.07203,121.10169" id="path6618" inkscape:connector-curvature="0"></path>
  <path style="fill:none;stroke:#000000;stroke-width:1px;stroke-linecap:butt;stroke-linejoin:miter;stroke-opacity:1" d="m 81.23411,81.393008 c 48.01377,39.968222 48.01377,39.968222 48.01377,39.968222" id="path6620" inkscape:connector-curvature="0"></path>
  <path style="fill:none;stroke:#000000;stroke-width:1px;stroke-linecap:butt;stroke-linejoin:miter;stroke-opacity:1" d="M 82.272246,88.919491 C 119.12606,121.36123 119.12606,121.36123 119.12606,121.36123" id="path6622" inkscape:connector-curvature="0"></path>
  <path style="fill:none;stroke:#000000;stroke-width:1px;stroke-linecap:butt;stroke-linejoin:miter;stroke-opacity:1" d="m 83.050848,102.15572 c 24.655722,19.20551 24.655722,19.20551 24.655722,19.20551" id="path6624" inkscape:connector-curvature="0"></path>
  <path style="fill:none;stroke:#000000;stroke-width:1px;stroke-linecap:butt;stroke-linejoin:miter;stroke-opacity:1" d="m 82.53178,108.9036 c 12.976695,12.71716 12.976695,12.71716 12.976695,12.71716" id="path6626" inkscape:connector-curvature="0"></path>
  <path style="fill:none;stroke:#000000;stroke-width:1px;stroke-linecap:butt;stroke-linejoin:miter;stroke-opacity:1" d="m 82.53178,114.87288 c 5.709746,6.48835 5.709746,6.48835 5.709746,6.48835" id="path6628" inkscape:connector-curvature="0"></path>
  <path style="opacity:1;fill:#BF873C;fill-opacity:1;stroke:#191919;stroke-width:1.10221016;stroke-linecap:square;stroke-linejoin:bevel;stroke-miterlimit:4;stroke-dasharray:none;stroke-dashoffset:0;stroke-opacity:1;paint-order:markers fill stroke" d="M 3.9993535,178.79986 C 8.187415,173.84488 32.566957,143.99538 32.992907,143.30112 l 0.481498,-0.78479 95.429455,0.20984 c 114.57329,0.25195 138.21107,0.44586 137.9479,1.13168 -0.1046,0.27259 4.63722,6.02821 10.92561,13.2615 19.08294,21.95035 20.14673,23.18588 20.14673,23.39932 0,0.11447 -66.49952,0.20814 -147.77672,0.20814 H 2.3706619 Z" id="path6638" inkscape:connector-curvature="0"></path>
</svg>