<svg xmlns:dc="http://purl.org/dc/elements/1.1/" xmlns:cc="http://creativecommons.org/ns#" xmlns:rdf="http://www.w3.org/1999/02/22-rdf-syntax-ns#" xmlns:svg="http://www.w3.org/2000/svg" xmlns="http://www.w3.org/2000/svg" xmlns:sodipodi="http://sodipodi.sourceforge.net/DTD/sodipodi-0.dtd" xmlns:inkscape="http://www.inkscape.org/namespaces/inkscape" width="300" height="200" viewBox="0 0 79.374998 52.916668" version="1.1" id="svg8" inkscape:version="0.92.3 (2405546, 2018-03-11)" sodipodi:docname="faqs.svg" style="">
						  <defs id="defs2"></defs>
						  <sodipodi:namedview id="base" pagecolor="#ffffff" bordercolor="#666666" borderopacity="1.0" inkscape:pageopacity="0.0" inkscape:pageshadow="2" inkscape:zoom="2.8" inkscape:cx="109.42091" inkscape:cy="110.7813" inkscape:document-units="mm" inkscape:current-layer="layer1" showgrid="false" units="px" inkscape:window-width="1920" inkscape:window-height="986" inkscape:window-x="-11" inkscape:window-y="-11" inkscape:window-maximized="1"></sodipodi:namedview>
						  <metadata id="metadata5">
						    <rdf:rdf>
						      <cc:work rdf:about="">
						        <dc:format>image/svg+xml</dc:format>
						        <dc:type rdf:resource="http://purl.org/dc/dcmitype/StillImage"></dc:type>
						        <dc:title></dc:title>
						      </cc:work>
						    </rdf:rdf>
						  </metadata>
						  <g inkscape:label="Capa 1" inkscape:groupmode="layer" id="layer1" transform="translate(0,-244.08332)">
						    <path style="opacity: 0.964; fill: none; fill-opacity: 1; stroke: rgb(0, 0, 0); stroke-width: 0.165; stroke-miterlimit: 4; stroke-opacity: 1;" id="path815" d="M31.5610103,268.22653A8.7879467,9.1186762 0,1,1 49.1369037,268.22653A8.7879467,9.1186762 0,1,1 31.5610103,268.22653" class="rtHdXRHG_0"></path>
						    <path style="fill:none;stroke:#000000;stroke-width:0.26458332px;stroke-linecap:butt;stroke-linejoin:miter;stroke-opacity:1" d="M 32.978423,263.36011 C 23.245535,257.1235 23.056547,257.029 23.056547,257.029" id="path817" inkscape:connector-curvature="0" class="rtHdXRHG_1"></path>
						    <path style="opacity: 0.964; fill: none; fill-opacity: 1; stroke: rgb(0, 0, 0); stroke-width: 0.165; stroke-miterlimit: 4; stroke-opacity: 1;" id="path819" d="M16.2529764,254.7139A3.7325146,3.827009 0,1,1 23.718005599999998,254.7139A3.7325146,3.827009 0,1,1 16.2529764,254.7139" class="rtHdXRHG_2"></path>
						    <path style="fill:none;stroke:#000000;stroke-width:0.26458332px;stroke-linecap:butt;stroke-linejoin:miter;stroke-opacity:1" d="m 32.600447,272.14805 c -6.803572,4.25223 -6.898066,4.25223 -6.898066,4.25223" id="path821" inkscape:connector-curvature="0" class="rtHdXRHG_3"></path>
						    <path style="opacity: 0.964; fill: none; fill-opacity: 1; stroke: rgb(0, 0, 0); stroke-width: 0.165; stroke-miterlimit: 4; stroke-opacity: 1;" id="path823" d="M12.000743400000001,279.80206A7.2287946,6.8035712 0,1,1 26.458332600000002,279.80206A7.2287946,6.8035712 0,1,1 12.000743400000001,279.80206" class="rtHdXRHG_4"></path>
						    <path style="fill:none;stroke:#000000;stroke-width:0.26458332px;stroke-linecap:butt;stroke-linejoin:miter;stroke-opacity:1" d="m 46.207589,275.26635 c 15.591518,10.58334 15.591518,10.58334 15.591518,10.58334" id="path825" inkscape:connector-curvature="0" class="rtHdXRHG_5"></path>
						    <path style="opacity: 0.964; fill: none; fill-opacity: 1; stroke: rgb(0, 0, 0); stroke-width: 0.165; stroke-miterlimit: 4; stroke-opacity: 1;" id="path827" d="M60.2872012,290.00742A6.7563248,6.7090774 0,1,1 73.7998508,290.00742A6.7563248,6.7090774 0,1,1 60.2872012,290.00742" class="rtHdXRHG_6"></path>
						    <path style="fill:none;stroke:#000000;stroke-width:0.26458332px;stroke-linecap:butt;stroke-linejoin:miter;stroke-opacity:1" d="m 49.042409,266.47841 c 9.543899,-0.18899 9.543899,-0.18899 9.543899,-0.18899" id="path829" inkscape:connector-curvature="0" class="rtHdXRHG_7"></path>
						    <path style="opacity: 0.964; fill: none; fill-opacity: 1; stroke: rgb(0, 0, 0); stroke-width: 0.165; stroke-miterlimit: 4; stroke-opacity: 1;" id="path831" d="M58.586312400000004,266.66742A5.5751486,5.7641373 0,1,1 69.73660960000001,266.66742A5.5751486,5.7641373 0,1,1 58.586312400000004,266.66742" class="rtHdXRHG_8"></path>
						    <path style="fill:none;stroke:#000000;stroke-width:0.26458332px;stroke-linecap:butt;stroke-linejoin:miter;stroke-opacity:1" d="m 43.372767,259.58034 c 1.41741,-5.57515 1.41741,-5.57515 1.41741,-5.57515" id="path833" inkscape:connector-curvature="0" class="rtHdXRHG_9"></path>
						    <path style="opacity: 0.964; fill: rgb(191, 135, 60); fill-opacity: 1; stroke: rgb(0, 0, 0); stroke-width: 0.139727; stroke-miterlimit: 4; stroke-opacity: 1;" id="path835" d="M40.2418273,249.51672A4.9735737,4.5955977 0,1,1 50.1889747,249.51672A4.9735737,4.5955977 0,1,1 40.2418273,249.51672" class="rtHdXRHG_10"></path>
						    <flowroot xml:space="preserve" id="flowRoot837" style="font-style:normal;font-variant:normal;font-weight:normal;font-stretch:normal;font-size:40px;line-height:1.25;font-family:Bahnschrift;-inkscape-font-specification:Bahnschrift;letter-spacing:0px;word-spacing:0px;fill:#000000;fill-opacity:1;stroke:#000000;stroke-width:1.00157481;stroke-miterlimit:4;stroke-dasharray:none;stroke-opacity:1" transform="matrix(0.26458333,0,0,0.26458333,61.421131,253.9107)"><flowregion id="flowRegion839" style="stroke-width:1.00157481;stroke-miterlimit:4;stroke-dasharray:none;stroke:#000000;stroke-opacity:1"><path id="rect841" width="55.714287" height="64.285713" style="stroke-width: 1.00157; stroke-miterlimit: 4; stroke: rgb(0, 0, 0); stroke-opacity: 1;" d="M-93.214287 24.642857 L-37.5 24.642857 L-37.5 88.92857000000001 L-93.214287 88.92857000000001 Z" class="rtHdXRHG_11"></path></flowregion><flowpara id="flowPara843" style="font-style:normal;font-variant:normal;font-weight:normal;font-stretch:normal;font-size:48px;font-family:'Bauhaus 93';-inkscape-font-specification:'Bauhaus 93, ';stroke:#000000;stroke-width:1.00157481;stroke-miterlimit:4;stroke-dasharray:none;stroke-opacity:1">?</flowpara></flowroot>    <path style="opacity: 0.964; fill: rgb(191, 135, 60); fill-opacity: 1; stroke: rgb(0, 0, 0); stroke-width: 0.222722; stroke-miterlimit: 4; stroke-opacity: 1;" d="m 149.09885,124.97527 c -9.3622,-0.82947 -18.30574,-6.44396 -23.79596,-14.93839 -0.81213,-1.25653 -1.57818,-2.69357 -1.70234,-3.19342 -0.12415,-0.49986 -0.5145,-1.31062 -0.86744,-1.80169 -1.36541,-1.89981 -2.52513,-7.04221 -2.72112,-12.06592 -0.21666,-5.553589 0.22941,-8.899025 1.77137,-13.28498 6.94839,-19.763985 29.27243,-28.304467 46.88755,-17.937715 3.70161,2.178448 9.42697,7.839024 11.45394,11.324327 3.03003,5.210024 4.6097,10.289957 5.02464,16.158299 0.69714,9.859472 -3.53645,20.498779 -10.85192,27.271619 -6.97064,6.45358 -15.51726,9.32561 -25.19872,8.46787 z m 6.12855,-19.10995 c 0.51893,-0.37774 1.3155,-1.4006 1.77014,-2.27303 2.04556,-3.925248 -0.90068,-8.550523 -5.44656,-8.550523 -2.05322,0 -3.44512,0.689308 -4.69145,2.323333 -1.84397,2.417575 -1.37318,6.75911 0.90918,8.3843 2.06152,1.46794 5.52732,1.5218 7.45869,0.11592 z m 1.12208,-12.415642 c 0,-1.076648 0.19598,-1.349794 1.52892,-2.130948 3.26575,-1.913857 4.63617,-4.294738 4.64085,-8.062677 0.009,-6.995434 -6.79589,-12.140316 -13.48483,-10.195789 -4.94785,1.438379 -7.67109,4.663105 -8.24251,9.760384 l -0.25147,2.243168 4.60095,-0.10031 4.60095,-0.10031 0.12089,-1.071429 c 0.0665,-0.589285 0.2938,-1.280446 0.50514,-1.535913 0.51787,-0.625996 2.06613,-0.398226 2.55041,0.375199 0.58885,0.94045 -0.0687,1.718036 -2.49167,2.946429 -2.75583,1.39716 -3.72049,3.129887 -3.72049,6.682818 v 2.424325 h 4.82143 4.82143 z" id="path913" inkscape:connector-curvature="0" transform="matrix(0.26458333,0,0,0.26458333,0,244.08332)" class="rtHdXRHG_12"></path>
						    <g id="g976" transform="matrix(0.02332822,0,0,0.02358541,61.541611,284.20548)" style="stroke:#000000;stroke-opacity:0.97718632;stroke-width:0.98053997;stroke-miterlimit:4;stroke-dasharray:none">
						      <g id="g919" style="stroke:#000000;stroke-opacity:0.97718632;stroke-width:0.98053997;stroke-miterlimit:4;stroke-dasharray:none">
							<g id="g917" style="stroke:#000000;stroke-opacity:0.97718632;stroke-width:0.98053997;stroke-miterlimit:4;stroke-dasharray:none">
								<path id="path915" d="m 406.4,242.4 -56,-64 c -1.6,-1.6 -4,-2.4 -6.4,-2.4 H 312 V 8 c 0,-4.8 -3.2,-8 -8,-8 H 96 c -4.8,0 -8,3.2 -8,8 v 288 c 0,4.8 3.2,8 8,8 h 88 v 56 c 0,1.6 0,2.4 0.8,3.2 L 208,409.6 V 488 c 0,4.8 3.2,8 8,8 h 128 c 4.8,0 8,-3.2 8,-8 v -76.8 l 53.6,-53.6 c 1.6,-1.6 2.4,-3.2 2.4,-5.6 V 248 c 0,-1.6 -0.8,-4 -1.6,-5.6 z M 312,296 v -48 h 4 l 12,18.4 v 48.8 l -40,20 -24,-12 V 304 h 40 c 4.8,0 8,-3.2 8,-8 z m -48,-8 v -16 h 32 v 16 z M 104,16 H 296 V 32 H 104 Z m 80,272 h -80 v -16 h 80 z m 0,-40 v 8 H 104 V 48 h 192 v 208 h -32 v -8 c 0,-1.6 0,-2.4 -0.8,-3.2 l -16,-32 c -1.6,-3.2 -4,-4.8 -7.2,-4.8 h -32 c -3.2,0 -5.6,1.6 -7.2,4.8 l -16,32 c -0.8,0.8 -0.8,1.6 -0.8,3.2 z m 208,100.8 -53.6,53.6 c -1.6,1.6 -2.4,3.2 -2.4,5.6 v 72 H 224 v -72 c 0,-1.6 0,-2.4 -0.8,-3.2 L 200,358.4 V 249.6 L 212.8,224 h 22.4 L 248,249.6 V 328 c 0,3.2 1.6,5.6 4.8,7.2 l 32,16 c 2.4,0.8 4.8,0.8 7.2,0 l 48,-24 c 2.4,-1.6 4.8,-4 4.8,-7.2 v -56 c 0,-1.6 -0.8,-3.2 -1.6,-4.8 l -16,-24 c -2.4,-1.6 -4.8,-3.2 -7.2,-3.2 h -8 v -40 h 28 l 52,59.2 z" inkscape:connector-curvature="0" style="stroke: rgb(0, 0, 0); stroke-opacity: 0.977186; stroke-width: 0.98054; stroke-miterlimit: 4;" class="rtHdXRHG_13"></path>

							</g>

						</g>
						      <g id="g921" style="stroke:#000000;stroke-opacity:0.97718632;stroke-width:0.98053997;stroke-miterlimit:4;stroke-dasharray:none">
						</g>
						      <g id="g923" style="stroke:#000000;stroke-opacity:0.97718632;stroke-width:0.98053997;stroke-miterlimit:4;stroke-dasharray:none">
						</g>
						      <g id="g925" style="stroke:#000000;stroke-opacity:0.97718632;stroke-width:0.98053997;stroke-miterlimit:4;stroke-dasharray:none">
						</g>
						      <g id="g927" style="stroke:#000000;stroke-opacity:0.97718632;stroke-width:0.98053997;stroke-miterlimit:4;stroke-dasharray:none">
						</g>
						      <g id="g929" style="stroke:#000000;stroke-opacity:0.97718632;stroke-width:0.98053997;stroke-miterlimit:4;stroke-dasharray:none">
						</g>
						      <g id="g931" style="stroke:#000000;stroke-opacity:0.97718632;stroke-width:0.98053997;stroke-miterlimit:4;stroke-dasharray:none">
						</g>
						      <g id="g933" style="stroke:#000000;stroke-opacity:0.97718632;stroke-width:0.98053997;stroke-miterlimit:4;stroke-dasharray:none">
						</g>
						      <g id="g935" style="stroke:#000000;stroke-opacity:0.97718632;stroke-width:0.98053997;stroke-miterlimit:4;stroke-dasharray:none">
						</g>
						      <g id="g937" style="stroke:#000000;stroke-opacity:0.97718632;stroke-width:0.98053997;stroke-miterlimit:4;stroke-dasharray:none">
						</g>
						      <g id="g939" style="stroke:#000000;stroke-opacity:0.97718632;stroke-width:0.98053997;stroke-miterlimit:4;stroke-dasharray:none">
						</g>
						      <g id="g941" style="stroke:#000000;stroke-opacity:0.97718632;stroke-width:0.98053997;stroke-miterlimit:4;stroke-dasharray:none">
						</g>
						      <g id="g943" style="stroke:#000000;stroke-opacity:0.97718632;stroke-width:0.98053997;stroke-miterlimit:4;stroke-dasharray:none">
						</g>
						      <g id="g945" style="stroke:#000000;stroke-opacity:0.97718632;stroke-width:0.98053997;stroke-miterlimit:4;stroke-dasharray:none">
						</g>
						      <g id="g947" style="stroke:#000000;stroke-opacity:0.97718632;stroke-width:0.98053997;stroke-miterlimit:4;stroke-dasharray:none">
						</g>
						      <g id="g949" style="stroke:#000000;stroke-opacity:0.97718632;stroke-width:0.98053997;stroke-miterlimit:4;stroke-dasharray:none">
						</g>
						    </g>
						    <path style="opacity: 0.964; fill: rgb(191, 135, 60); fill-opacity: 1; stroke: rgb(0, 0, 0); stroke-width: 0.222722; stroke-miterlimit: 4; stroke-opacity: 1;" d="m 250.59865,198.20302 c -5.77471,-0.54074 -10.46849,-2.86541 -15.01484,-7.43632 -4.94651,-4.97322 -7.07564,-10.18099 -7.08619,-17.33251 -0.008,-5.70098 1.56079,-10.29004 5.15237,-15.0679 1.41973,-1.88867 5.74641,-5.81778 6.40645,-5.81778 0.11704,0 0.25497,5.90625 0.3065,13.125 l 0.0937,13.125 4.01786,0.10098 4.01786,0.10099 v 2.31991 c 0,1.86793 0.20875,2.73345 1.07143,4.44241 0.98432,1.94993 1.07143,2.42238 1.07143,5.81124 0,2.39284 0.15056,3.83932 0.42857,4.11733 0.29891,0.29891 2.27087,0.43186 6.51785,0.43943 6.53023,0.0116 6.81504,0.18127 2.30838,1.37476 -3.20253,0.84812 -5.68911,1.03477 -9.29135,0.69746 z" id="path978" inkscape:connector-curvature="0" transform="matrix(0.26458333,0,0,0.26458333,0,244.08332)" class="rtHdXRHG_14"></path>
						    <path style="opacity: 0.964; fill: rgb(191, 135, 60); fill-opacity: 1; stroke: rgb(0, 0, 0); stroke-width: 0.222722; stroke-miterlimit: 4; stroke-opacity: 1;" d="m 263.78491,192.28296 0.11399,-3.83848 2.47529,-2.55278 2.47529,-2.55277 v -4.94964 -4.94964 l -2.713,-3.12414 c -2.63976,-3.0398 -2.75526,-3.12414 -4.27875,-3.12414 h -1.56575 l -0.0962,-7.76786 -0.0962,-7.76785 -8.92857,-0.17858 -8.92857,-0.17857 1.96428,-0.78455 c 5.87723,-2.3474 12.2981,-2.39137 18.28831,-0.12523 6.9409,2.62579 12.62465,8.86655 14.9777,16.4455 1.22345,3.94061 1.15283,10.09352 -0.16191,14.10714 -1.55316,4.74144 -4.40564,8.92853 -8.06982,11.84548 -1.59934,1.27318 -4.97358,3.33016 -5.46883,3.33384 -0.0556,3.6e-4 -0.0499,-1.72656 0.0128,-3.83773 z" id="path980" inkscape:connector-curvature="0" transform="matrix(0.26458333,0,0,0.26458333,0,244.08332)" class="rtHdXRHG_15"></path>
						    <g id="g1388" transform="matrix(0.01046991,0,0,0.01237826,42.396587,246.2791)" style="stroke:#000000;stroke-opacity:1;stroke-width:9.75038367;stroke-miterlimit:4;stroke-dasharray:none">
						      <g id="g1329" transform="translate(-1)" style="stroke:#000000;stroke-opacity:1;stroke-width:9.75038367;stroke-miterlimit:4;stroke-dasharray:none">
							<g id="g1327" style="stroke:#000000;stroke-opacity:1;stroke-width:9.75038367;stroke-miterlimit:4;stroke-dasharray:none">
								<g id="g1325" style="stroke:#000000;stroke-opacity:1;stroke-width:9.75038367;stroke-miterlimit:4;stroke-dasharray:none">
									<path id="path1321" d="m 504.427,111.44 -1.253,-1.254 C 491.398,98.41 472.207,98.384 460.36,110.221 l -46.089,46.574 c -2.428,2.436 -6.312,2.534 -8.845,0.203 L 340.808,97.341 c -6.276,-5.8 -14.442,-8.987 -22.996,-8.987 h -96.124 c -2.269,0 -4.44,0.865 -6.082,2.419 l -81.47,77.356 c -11.935,11.944 -12.756,31.197 -1.818,42.92 5.844,6.268 13.736,9.719 22.219,9.719 h 0.15 c 8.413,-0.044 16.499,-3.619 22.087,-9.728 l 57.538,-60.893 h 20.595 L 120.63,300.218 H 37.81 c -19.633,0 -35.778,14.68 -36.758,33.421 -0.521,9.79 2.904,19.094 9.64,26.191 6.638,7 15.969,11.008 25.618,11.008 h 123.586 c 2.436,0 4.767,-1.006 6.444,-2.798 l 63.32,-67.593 53.248,55.684 -16.075,102.735 c -4.052,17.02 4.114,34.357 19.412,41.198 4.714,2.119 9.719,3.178 14.698,3.178 5.358,0 10.69,-1.227 15.598,-3.655 9.481,-4.696 16.296,-13.285 18.776,-23.967 L 362.78,328.314 c 0.53,-2.86 -0.38,-5.809 -2.445,-7.865 l -73.295,-73.198 58.227,-58.138 40.589,40.58 c 11.335,11.335 31.091,11.335 42.417,0 l 76.156,-76.147 c 5.623,-5.623 8.722,-13.109 8.722,-21.054 -0.002,-7.952 -3.101,-15.429 -8.724,-21.052 z" inkscape:connector-curvature="0" style="fill: rgb(255, 255, 255); stroke: rgb(0, 0, 0); stroke-opacity: 1; stroke-width: 9.75038; stroke-miterlimit: 4;" class="rtHdXRHG_16"></path>

									<path id="path1323" d="m 407.065,114.837 c 29.211,0 52.966,-23.755 52.966,-52.966 0,-29.211 -23.755,-52.966 -52.966,-52.966 -29.21,0 -52.966,23.755 -52.966,52.966 0.001,29.211 23.756,52.966 52.966,52.966 z" inkscape:connector-curvature="0" style="fill: rgb(255, 255, 255); stroke: rgb(0, 0, 0); stroke-opacity: 1; stroke-width: 9.75038; stroke-miterlimit: 4;" class="rtHdXRHG_17"></path>

								</g>

							</g>

						</g>
						      <g id="g1331" style="stroke:#000000;stroke-opacity:1;stroke-width:9.75038367;stroke-miterlimit:4;stroke-dasharray:none">
						</g>
						      <g id="g1333" style="stroke:#000000;stroke-opacity:1;stroke-width:9.75038367;stroke-miterlimit:4;stroke-dasharray:none">
						</g>
						      <g id="g1335" style="stroke:#000000;stroke-opacity:1;stroke-width:9.75038367;stroke-miterlimit:4;stroke-dasharray:none">
						</g>
						      <g id="g1337" style="stroke:#000000;stroke-opacity:1;stroke-width:9.75038367;stroke-miterlimit:4;stroke-dasharray:none">
						</g>
						      <g id="g1339" style="stroke:#000000;stroke-opacity:1;stroke-width:9.75038367;stroke-miterlimit:4;stroke-dasharray:none">
						</g>
						      <g id="g1341" style="stroke:#000000;stroke-opacity:1;stroke-width:9.75038367;stroke-miterlimit:4;stroke-dasharray:none">
						</g>
						      <g id="g1343" style="stroke:#000000;stroke-opacity:1;stroke-width:9.75038367;stroke-miterlimit:4;stroke-dasharray:none">
						</g>
						      <g id="g1345" style="stroke:#000000;stroke-opacity:1;stroke-width:9.75038367;stroke-miterlimit:4;stroke-dasharray:none">
						</g>
						      <g id="g1347" style="stroke:#000000;stroke-opacity:1;stroke-width:9.75038367;stroke-miterlimit:4;stroke-dasharray:none">
						</g>
						      <g id="g1349" style="stroke:#000000;stroke-opacity:1;stroke-width:9.75038367;stroke-miterlimit:4;stroke-dasharray:none">
						</g>
						      <g id="g1351" style="stroke:#000000;stroke-opacity:1;stroke-width:9.75038367;stroke-miterlimit:4;stroke-dasharray:none">
						</g>
						      <g id="g1353" style="stroke:#000000;stroke-opacity:1;stroke-width:9.75038367;stroke-miterlimit:4;stroke-dasharray:none">
						</g>
						      <g id="g1355" style="stroke:#000000;stroke-opacity:1;stroke-width:9.75038367;stroke-miterlimit:4;stroke-dasharray:none">
						</g>
						      <g id="g1357" style="stroke:#000000;stroke-opacity:1;stroke-width:9.75038367;stroke-miterlimit:4;stroke-dasharray:none">
						</g>
						      <g id="g1359" style="stroke:#000000;stroke-opacity:1;stroke-width:9.75038367;stroke-miterlimit:4;stroke-dasharray:none">
						</g>
						    </g>
						    <g id="g1454" transform="matrix(0.06759756,0,0,0.08199827,17.241633,251.74944)" style="stroke:#000000;stroke-width:2.2372849;stroke-miterlimit:4;stroke-dasharray:none;stroke-opacity:1">
						      <g id="g1396" style="stroke:#000000;stroke-width:2.2372849;stroke-miterlimit:4;stroke-dasharray:none;stroke-opacity:1">
							<g id="g1394" style="stroke:#000000;stroke-width:2.2372849;stroke-miterlimit:4;stroke-dasharray:none;stroke-opacity:1">
								<g id="g1392" style="stroke:#000000;stroke-width:2.2372849;stroke-miterlimit:4;stroke-dasharray:none;stroke-opacity:1">
									<path id="path1390" d="M 26.474,70 C 24.298,70 22.24,68.982 20.917,67.236 L 3.049,43.639 C 0.725,40.57 1.33,36.2 4.399,33.875 c 3.074,-2.326 7.441,-1.717 9.766,1.35 L 25.917,50.743 55.474,3.285 c 2.035,-3.265 6.332,-4.264 9.604,-2.232 3.268,2.034 4.266,6.334 2.23,9.602 l -34.916,56.06 c -1.213,1.949 -3.307,3.175 -5.6,3.279 C 26.685,69.998 26.58,70 26.474,70 Z" inkscape:connector-curvature="0" style="fill: rgb(255, 255, 255); stroke: rgb(0, 0, 0); stroke-width: 2.23728; stroke-miterlimit: 4; stroke-opacity: 1;" class="rtHdXRHG_18"></path>

								</g>

							</g>

						</g>
						      <g id="g1398" style="stroke:#000000;stroke-width:2.2372849;stroke-miterlimit:4;stroke-dasharray:none;stroke-opacity:1">
						</g>
						      <g id="g1400" style="stroke:#000000;stroke-width:2.2372849;stroke-miterlimit:4;stroke-dasharray:none;stroke-opacity:1">
						</g>
						      <g id="g1402" style="stroke:#000000;stroke-width:2.2372849;stroke-miterlimit:4;stroke-dasharray:none;stroke-opacity:1">
						</g>
						      <g id="g1404" style="stroke:#000000;stroke-width:2.2372849;stroke-miterlimit:4;stroke-dasharray:none;stroke-opacity:1">
						</g>
						      <g id="g1406" style="stroke:#000000;stroke-width:2.2372849;stroke-miterlimit:4;stroke-dasharray:none;stroke-opacity:1">
						</g>
						      <g id="g1408" style="stroke:#000000;stroke-width:2.2372849;stroke-miterlimit:4;stroke-dasharray:none;stroke-opacity:1">
						</g>
						      <g id="g1410" style="stroke:#000000;stroke-width:2.2372849;stroke-miterlimit:4;stroke-dasharray:none;stroke-opacity:1">
						</g>
						      <g id="g1412" style="stroke:#000000;stroke-width:2.2372849;stroke-miterlimit:4;stroke-dasharray:none;stroke-opacity:1">
						</g>
						      <g id="g1414" style="stroke:#000000;stroke-width:2.2372849;stroke-miterlimit:4;stroke-dasharray:none;stroke-opacity:1">
						</g>
						      <g id="g1416" style="stroke:#000000;stroke-width:2.2372849;stroke-miterlimit:4;stroke-dasharray:none;stroke-opacity:1">
						</g>
						      <g id="g1418" style="stroke:#000000;stroke-width:2.2372849;stroke-miterlimit:4;stroke-dasharray:none;stroke-opacity:1">
						</g>
						      <g id="g1420" style="stroke:#000000;stroke-width:2.2372849;stroke-miterlimit:4;stroke-dasharray:none;stroke-opacity:1">
						</g>
						      <g id="g1422" style="stroke:#000000;stroke-width:2.2372849;stroke-miterlimit:4;stroke-dasharray:none;stroke-opacity:1">
						</g>
						      <g id="g1424" style="stroke:#000000;stroke-width:2.2372849;stroke-miterlimit:4;stroke-dasharray:none;stroke-opacity:1">
						</g>
						      <g id="g1426" style="stroke:#000000;stroke-width:2.2372849;stroke-miterlimit:4;stroke-dasharray:none;stroke-opacity:1">
						</g>
						    </g>
						    <path style="opacity: 0.964; fill: rgb(191, 135, 60); fill-opacity: 1; stroke: rgb(0, 0, 0); stroke-width: 0.244319; stroke-miterlimit: 4; stroke-opacity: 1;" d="m 72.063767,53.761481 c -3.755625,-1.235066 -7.202585,-4.276748 -8.864266,-7.822048 -0.848117,-1.809509 -0.957163,-2.470353 -0.957163,-5.800622 0,-3.516696 0.07446,-3.90965 1.1576,-6.108929 3.726451,-7.566448 12.81414,-10.059915 19.681509,-5.400184 8.780355,5.957754 7.725016,19.497547 -1.886223,24.199888 -1.742672,0.852611 -2.642249,1.048866 -5.174013,1.128782 -1.685523,0.0532 -3.466373,-0.03539 -3.957444,-0.196887 z m 1.207052,-3.209614 c 0.832378,-0.919767 9.489344,-17.85262 9.74506,-19.061142 0.392236,-1.853716 -1.530061,-3.609543 -3.057058,-2.792319 -0.392559,0.210091 -2.318602,3.532916 -4.358771,7.519786 -2.010478,3.928848 -3.749146,7.141047 -3.863706,7.13822 -0.11456,-0.0028 -0.851148,-0.99369 -1.636863,-2.201916 -1.686718,-2.593737 -2.592993,-3.065416 -3.905764,-2.03279 -1.591277,1.251698 -1.276162,2.668707 1.628087,7.321195 1.399064,2.241242 2.805314,4.227781 3.125,4.41453 0.8985,0.524871 1.663509,0.424287 2.324015,-0.305564 z" id="path1462" inkscape:connector-curvature="0" transform="matrix(0.26458333,0,0,0.26458333,0,244.08332)" class="rtHdXRHG_19"></path>
						    <g id="g1594" transform="matrix(0.02281985,0,0,0.02618706,13.945985,273.65036)" style="stroke:#000000;stroke-width:5.59748745;stroke-miterlimit:4;stroke-dasharray:none;stroke-opacity:1">
						      <g id="g1536" style="stroke:#000000;stroke-width:5.59748745;stroke-miterlimit:4;stroke-dasharray:none;stroke-opacity:1">
							<g id="g1534" style="stroke:#000000;stroke-width:5.59748745;stroke-miterlimit:4;stroke-dasharray:none;stroke-opacity:1">
								<path id="path1530" d="M 230.149,120.939 65.986,256.274 c 0,0.191 -0.048,0.472 -0.144,0.855 -0.094,0.38 -0.144,0.656 -0.144,0.852 v 137.041 c 0,4.948 1.809,9.236 5.426,12.847 3.616,3.613 7.898,5.431 12.847,5.431 h 109.63 V 303.664 h 73.097 v 109.64 h 109.629 c 4.948,0 9.236,-1.814 12.847,-5.435 3.617,-3.607 5.432,-7.898 5.432,-12.847 V 257.981 c 0,-0.76 -0.104,-1.334 -0.288,-1.707 z" inkscape:connector-curvature="0" style="fill: rgb(255, 255, 255); stroke: rgb(0, 0, 0); stroke-width: 5.59749; stroke-miterlimit: 4; stroke-opacity: 1;" class="rtHdXRHG_20"></path>

								<path id="path1532" d="M 457.122,225.438 394.6,173.476 V 56.989 c 0,-2.663 -0.856,-4.853 -2.574,-6.567 -1.704,-1.712 -3.894,-2.568 -6.563,-2.568 h -54.816 c -2.666,0 -4.855,0.856 -6.57,2.568 -1.711,1.714 -2.566,3.905 -2.566,6.567 v 55.673 L 251.849,54.417 c -6.084,-4.949 -13.318,-7.423 -21.694,-7.423 -8.375,0 -15.608,2.474 -21.698,7.423 L 3.172,225.438 c -1.903,1.52 -2.946,3.566 -3.14,6.136 -0.193,2.568 0.472,4.811 1.997,6.713 l 17.701,21.128 c 1.525,1.712 3.521,2.759 5.996,3.142 2.285,0.192 4.57,-0.476 6.855,-1.998 L 230.149,95.817 427.719,260.558 c 1.526,1.328 3.521,1.991 5.996,1.991 h 0.858 c 2.471,-0.376 4.463,-1.43 5.996,-3.138 l 17.703,-21.125 c 1.522,-1.906 2.189,-4.145 1.991,-6.716 -0.195,-2.563 -1.242,-4.609 -3.141,-6.132 z" inkscape:connector-curvature="0" style="fill: rgb(255, 255, 255); stroke: rgb(0, 0, 0); stroke-width: 5.59749; stroke-miterlimit: 4; stroke-opacity: 1;" class="rtHdXRHG_21"></path>

							</g>

						</g>
						      <g id="g1538" style="stroke:#000000;stroke-width:5.59748745;stroke-miterlimit:4;stroke-dasharray:none;stroke-opacity:1">
						</g>
						      <g id="g1540" style="stroke:#000000;stroke-width:5.59748745;stroke-miterlimit:4;stroke-dasharray:none;stroke-opacity:1">
						</g>
						      <g id="g1542" style="stroke:#000000;stroke-width:5.59748745;stroke-miterlimit:4;stroke-dasharray:none;stroke-opacity:1">
						</g>
						      <g id="g1544" style="stroke:#000000;stroke-width:5.59748745;stroke-miterlimit:4;stroke-dasharray:none;stroke-opacity:1">
						</g>
						      <g id="g1546" style="stroke:#000000;stroke-width:5.59748745;stroke-miterlimit:4;stroke-dasharray:none;stroke-opacity:1">
						</g>
						      <g id="g1548" style="stroke:#000000;stroke-width:5.59748745;stroke-miterlimit:4;stroke-dasharray:none;stroke-opacity:1">
						</g>
						      <g id="g1550" style="stroke:#000000;stroke-width:5.59748745;stroke-miterlimit:4;stroke-dasharray:none;stroke-opacity:1">
						</g>
						      <g id="g1552" style="stroke:#000000;stroke-width:5.59748745;stroke-miterlimit:4;stroke-dasharray:none;stroke-opacity:1">
						</g>
						      <g id="g1554" style="stroke:#000000;stroke-width:5.59748745;stroke-miterlimit:4;stroke-dasharray:none;stroke-opacity:1">
						</g>
						      <g id="g1556" style="stroke:#000000;stroke-width:5.59748745;stroke-miterlimit:4;stroke-dasharray:none;stroke-opacity:1">
						</g>
						      <g id="g1558" style="stroke:#000000;stroke-width:5.59748745;stroke-miterlimit:4;stroke-dasharray:none;stroke-opacity:1">
						</g>
						      <g id="g1560" style="stroke:#000000;stroke-width:5.59748745;stroke-miterlimit:4;stroke-dasharray:none;stroke-opacity:1">
						</g>
						      <g id="g1562" style="stroke:#000000;stroke-width:5.59748745;stroke-miterlimit:4;stroke-dasharray:none;stroke-opacity:1">
						</g>
						      <g id="g1564" style="stroke:#000000;stroke-width:5.59748745;stroke-miterlimit:4;stroke-dasharray:none;stroke-opacity:1">
						</g>
						      <g id="g1566" style="stroke:#000000;stroke-width:5.59748745;stroke-miterlimit:4;stroke-dasharray:none;stroke-opacity:1">
						</g>
						    </g>
						    <path style="opacity: 0.964; fill: rgb(191, 135, 60); fill-opacity: 1; stroke: rgb(0, 0, 0); stroke-width: 0.164679; stroke-miterlimit: 4; stroke-opacity: 1;" d="m 67.447762,159.75896 c -2.598223,-0.50976 -5.04064,-1.402 -8.062566,-2.94533 -3.789287,-1.93523 -8.712005,-6.76992 -10.611964,-10.42219 -3.848472,-7.3979 -3.763254,-15.99948 0.229977,-23.21297 1.972812,-3.56375 6.674802,-8.11985 10.383923,-10.06175 4.701752,-2.46157 7.696092,-3.15165 13.569492,-3.12724 4.679081,0.0195 5.217767,0.0953 8.392857,1.18185 8.397615,2.87375 14.529907,8.88265 16.996486,16.65451 5.124513,16.14664 -7.889421,32.46293 -25.746486,32.2798 -1.964285,-0.0202 -4.282559,-0.17615 -5.151719,-0.34668 z m 2.473148,-12.11169 v -5.35715 h 2.678571 2.678572 v 5.35715 5.35714 h 5.331632 c 4.37075,0 5.432778,-0.10115 5.892857,-0.56122 0.475675,-0.47568 0.559414,-1.71423 0.549346,-8.125 l -0.01188,-7.56378 -7.012051,-6.60714 c -3.856627,-3.63393 -7.208548,-6.60715 -7.448714,-6.60715 -0.240165,0 -3.588326,2.96475 -7.440357,6.58832 l -7.003692,6.58831 v 7.71526 c 0,5.52456 0.121689,7.83695 0.428571,8.14383 0.295985,0.29598 2.119047,0.42857 5.892857,0.42857 h 5.464286 z m -5.836374,-17.69142 8.379616,-8.04856 2.637583,2.42356 c 1.450671,1.33296 5.277186,4.95481 8.503368,8.04856 3.566585,3.42018 6.144925,5.625 6.577939,5.625 0.748629,0 2.595011,-2.30662 2.595011,-3.24186 0,-0.28869 -1.282061,-1.79944 -2.849022,-3.35721 l -2.849021,-2.83231 -0.09741,-6.08788 -0.09741,-6.08788 -3.184083,-0.10405 c -2.306407,-0.0754 -3.264733,0.0231 -3.476674,0.35714 -0.160925,0.25366 -0.295052,1.47656 -0.29806,2.71757 l -0.0055,2.25638 -2.879988,-2.61352 c -3.10235,-2.81531 -3.962666,-3.30202 -5.260823,-2.9762 -1.087034,0.27283 -19.144,17.5558 -19.298482,18.47127 -0.173056,1.02554 1.579424,3.49855 2.479223,3.49855 0.484112,0 3.671768,-2.81202 9.123696,-8.04856 z" id="path1596" inkscape:connector-curvature="0" transform="matrix(0.26458333,0,0,0.26458333,0,244.08332)" class="rtHdXRHG_22"></path>
						    <g id="g1776" transform="matrix(0.01352561,0,0,0.01390405,60.141692,262.27993)" style="stroke:#000000;stroke-width:8.31296158;stroke-miterlimit:4;stroke-dasharray:none;stroke-opacity:1">
						      <g id="g1680" style="stroke:#000000;stroke-width:8.31296158;stroke-miterlimit:4;stroke-dasharray:none;stroke-opacity:1">
							<g id="g1678" style="stroke:#000000;stroke-width:8.31296158;stroke-miterlimit:4;stroke-dasharray:none;stroke-opacity:1">
								<g id="g1604" style="stroke:#000000;stroke-width:8.31296158;stroke-miterlimit:4;stroke-dasharray:none;stroke-opacity:1">
									<g id="g1602" style="stroke:#000000;stroke-width:8.31296158;stroke-miterlimit:4;stroke-dasharray:none;stroke-opacity:1">
										<g id="g1600" style="stroke:#000000;stroke-width:8.31296158;stroke-miterlimit:4;stroke-dasharray:none;stroke-opacity:1">
											<path id="path1598" d="m 479.808,326.519 c -73.02,0 -132.228,59.227 -132.228,132.229 0,72.983 59.208,132.174 132.228,132.174 72.984,0 132.192,-59.19 132.192,-132.174 0,-73.003 -59.208,-132.229 -132.192,-132.229 z m 8.484,229.95 v -11.415 c 0,-4.722 -3.808,-8.538 -8.484,-8.538 -4.722,0 -8.521,3.826 -8.521,8.538 v 11.415 c -47.341,-4.07 -85.158,-41.896 -89.229,-89.229 h 11.451 c 4.677,0 8.502,-3.809 8.502,-8.484 0,-4.758 -3.825,-8.521 -8.502,-8.521 h -11.451 c 4.07,-47.351 41.896,-85.14 89.229,-89.229 v 11.433 c 0,4.704 3.809,8.521 8.521,8.521 4.677,0 8.484,-3.826 8.484,-8.521 v -11.433 c 47.359,4.089 85.177,41.878 89.229,89.229 H 566.07 c -4.703,0 -8.502,3.771 -8.502,8.521 0,4.686 3.808,8.484 8.502,8.484 h 11.451 c -4.043,47.332 -41.87,85.149 -89.229,89.229 z" inkscape:connector-curvature="0" style="fill: rgb(255, 255, 255); stroke: rgb(0, 0, 0); stroke-width: 8.31296; stroke-miterlimit: 4; stroke-opacity: 1;" class="rtHdXRHG_23"></path>

										</g>

									</g>

								</g>

								<g id="g1612" style="stroke:#000000;stroke-width:8.31296158;stroke-miterlimit:4;stroke-dasharray:none;stroke-opacity:1">
									<g id="g1610" style="stroke:#000000;stroke-width:8.31296158;stroke-miterlimit:4;stroke-dasharray:none;stroke-opacity:1">
										<g id="g1608" style="stroke:#000000;stroke-width:8.31296158;stroke-miterlimit:4;stroke-dasharray:none;stroke-opacity:1">
											<path id="path1606" d="m 529.066,445.966 h -30.671 c -4.089,-5.897 -10.881,-9.813 -18.588,-9.813 -0.117,0 -0.244,0.036 -0.38,0.036 l -27.948,-39.346 c -4.07,-5.726 -12.048,-7.055 -17.792,-3.003 -5.726,4.089 -7.101,12.084 -3.003,17.828 l 27.967,39.363 c -0.859,2.415 -1.41,4.984 -1.41,7.725 0,12.464 10.085,22.549 22.566,22.549 7.707,0 14.535,-3.88 18.588,-9.796 h 30.671 c 7.037,0 12.763,-5.688 12.763,-12.744 0,-7.091 -5.725,-12.799 -12.763,-12.799 z" inkscape:connector-curvature="0" style="fill: rgb(255, 255, 255); stroke: rgb(0, 0, 0); stroke-width: 8.31296; stroke-miterlimit: 4; stroke-opacity: 1;" class="rtHdXRHG_24"></path>

										</g>

									</g>

								</g>

								<g id="g1620" style="stroke:#000000;stroke-width:8.31296158;stroke-miterlimit:4;stroke-dasharray:none;stroke-opacity:1">
									<g id="g1618" style="stroke:#000000;stroke-width:8.31296158;stroke-miterlimit:4;stroke-dasharray:none;stroke-opacity:1">
										<g id="g1616" style="stroke:#000000;stroke-width:8.31296158;stroke-miterlimit:4;stroke-dasharray:none;stroke-opacity:1">
											<path id="path1614" d="m 127.245,195.593 c 23.137,0 41.86,-18.741 41.86,-41.851 V 62.93 c 0,-23.119 -18.723,-41.851 -41.86,-41.851 -23.119,0 -41.833,18.732 -41.833,41.851 v 90.821 c 0,23.101 18.713,41.842 41.833,41.842 z" inkscape:connector-curvature="0" style="fill: rgb(255, 255, 255); stroke: rgb(0, 0, 0); stroke-width: 8.31296; stroke-miterlimit: 4; stroke-opacity: 1;" class="rtHdXRHG_25"></path>

										</g>

									</g>

								</g>

								<g id="g1628" style="stroke:#000000;stroke-width:8.31296158;stroke-miterlimit:4;stroke-dasharray:none;stroke-opacity:1">
									<g id="g1626" style="stroke:#000000;stroke-width:8.31296158;stroke-miterlimit:4;stroke-dasharray:none;stroke-opacity:1">
										<g id="g1624" style="stroke:#000000;stroke-width:8.31296158;stroke-miterlimit:4;stroke-dasharray:none;stroke-opacity:1">
											<path id="path1622" d="m 383.578,195.593 c 23.138,0 41.86,-18.741 41.86,-41.851 V 62.93 c 0,-23.119 -18.723,-41.851 -41.86,-41.851 -23.101,0 -41.832,18.732 -41.832,41.851 v 90.821 c -0.01,23.101 18.732,41.842 41.832,41.842 z" inkscape:connector-curvature="0" style="fill: rgb(255, 255, 255); stroke: rgb(0, 0, 0); stroke-width: 8.31296; stroke-miterlimit: 4; stroke-opacity: 1;" class="rtHdXRHG_26"></path>

										</g>

									</g>

								</g>

								<g id="g1636" style="stroke:#000000;stroke-width:8.31296158;stroke-miterlimit:4;stroke-dasharray:none;stroke-opacity:1">
									<g id="g1634" style="stroke:#000000;stroke-width:8.31296158;stroke-miterlimit:4;stroke-dasharray:none;stroke-opacity:1">
										<g id="g1632" style="stroke:#000000;stroke-width:8.31296158;stroke-miterlimit:4;stroke-dasharray:none;stroke-opacity:1">
											<path id="path1630" d="m 183.957,311.793 c 0,-11.948 -9.66,-21.626 -21.636,-21.626 h -40.105 c -11.948,0 -21.653,9.678 -21.653,21.626 v 40.088 c 0,11.966 9.705,21.672 21.653,21.672 h 40.105 c 11.966,0 21.636,-9.706 21.636,-21.672 z" inkscape:connector-curvature="0" style="fill: rgb(255, 255, 255); stroke: rgb(0, 0, 0); stroke-width: 8.31296; stroke-miterlimit: 4; stroke-opacity: 1;" class="rtHdXRHG_27"></path>

										</g>

									</g>

								</g>

								<g id="g1644" style="stroke:#000000;stroke-width:8.31296158;stroke-miterlimit:4;stroke-dasharray:none;stroke-opacity:1">
									<g id="g1642" style="stroke:#000000;stroke-width:8.31296158;stroke-miterlimit:4;stroke-dasharray:none;stroke-opacity:1">
										<g id="g1640" style="stroke:#000000;stroke-width:8.31296158;stroke-miterlimit:4;stroke-dasharray:none;stroke-opacity:1">
											<path id="path1638" d="m 297.127,311.82 c 0,-11.948 -9.687,-21.617 -21.608,-21.617 h -40.124 c -11.948,0 -21.618,9.669 -21.618,21.617 v 40.097 c 0,11.93 9.669,21.636 21.618,21.636 h 40.124 c 11.93,0 21.608,-9.706 21.608,-21.636 z" inkscape:connector-curvature="0" style="fill: rgb(255, 255, 255); stroke: rgb(0, 0, 0); stroke-width: 8.31296; stroke-miterlimit: 4; stroke-opacity: 1;" class="rtHdXRHG_28"></path>

										</g>

									</g>

								</g>

								<g id="g1652" style="stroke:#000000;stroke-width:8.31296158;stroke-miterlimit:4;stroke-dasharray:none;stroke-opacity:1">
									<g id="g1650" style="stroke:#000000;stroke-width:8.31296158;stroke-miterlimit:4;stroke-dasharray:none;stroke-opacity:1">
										<g id="g1648" style="stroke:#000000;stroke-width:8.31296158;stroke-miterlimit:4;stroke-dasharray:none;stroke-opacity:1">
											<path id="path1646" d="m 348.548,290.167 c -11.967,0 -21.654,9.678 -21.654,21.626 v 40.088 c 0,10.826 8.068,19.365 18.416,20.984 15.864,-24.711 38.332,-44.719 64.934,-57.653 v -3.419 c 0,-11.948 -9.669,-21.626 -21.636,-21.626 z" inkscape:connector-curvature="0" style="fill: rgb(255, 255, 255); stroke: rgb(0, 0, 0); stroke-width: 8.31296; stroke-miterlimit: 4; stroke-opacity: 1;" class="rtHdXRHG_29"></path>

										</g>

									</g>

								</g>

								<g id="g1660" style="stroke:#000000;stroke-width:8.31296158;stroke-miterlimit:4;stroke-dasharray:none;stroke-opacity:1">
									<g id="g1658" style="stroke:#000000;stroke-width:8.31296158;stroke-miterlimit:4;stroke-dasharray:none;stroke-opacity:1">
										<g id="g1656" style="stroke:#000000;stroke-width:8.31296158;stroke-miterlimit:4;stroke-dasharray:none;stroke-opacity:1">
											<path id="path1654" d="m 122.225,398.833 c -11.948,0 -21.654,9.669 -21.654,21.617 v 40.105 c 0,11.948 9.706,21.617 21.654,21.617 h 40.124 c 11.948,0 21.608,-9.669 21.608,-21.617 V 420.45 c 0,-11.948 -9.66,-21.617 -21.608,-21.617 z" inkscape:connector-curvature="0" style="fill: rgb(255, 255, 255); stroke: rgb(0, 0, 0); stroke-width: 8.31296; stroke-miterlimit: 4; stroke-opacity: 1;" class="rtHdXRHG_30"></path>

										</g>

									</g>

								</g>

								<g id="g1668" style="stroke:#000000;stroke-width:8.31296158;stroke-miterlimit:4;stroke-dasharray:none;stroke-opacity:1">
									<g id="g1666" style="stroke:#000000;stroke-width:8.31296158;stroke-miterlimit:4;stroke-dasharray:none;stroke-opacity:1">
										<g id="g1664" style="stroke:#000000;stroke-width:8.31296158;stroke-miterlimit:4;stroke-dasharray:none;stroke-opacity:1">
											<path id="path1662" d="m 275.473,398.851 h -40.087 c -11.948,0 -21.617,9.688 -21.617,21.636 v 40.069 c 0,11.948 9.669,21.617 21.617,21.617 h 40.087 c 11.93,0 21.618,-9.669 21.618,-21.617 v -40.069 c 0,-11.949 -9.688,-21.636 -21.618,-21.636 z" inkscape:connector-curvature="0" style="fill: rgb(255, 255, 255); stroke: rgb(0, 0, 0); stroke-width: 8.31296; stroke-miterlimit: 4; stroke-opacity: 1;" class="rtHdXRHG_31"></path>

										</g>

									</g>

								</g>

								<g id="g1676" style="stroke:#000000;stroke-width:8.31296158;stroke-miterlimit:4;stroke-dasharray:none;stroke-opacity:1">
									<g id="g1674" style="stroke:#000000;stroke-width:8.31296158;stroke-miterlimit:4;stroke-dasharray:none;stroke-opacity:1">
										<g id="g1672" style="stroke:#000000;stroke-width:8.31296158;stroke-miterlimit:4;stroke-dasharray:none;stroke-opacity:1">
											<path id="path1670" d="M 333.939,523.59 H 130.474 c -35.022,0 -63.523,-28.5 -63.523,-63.486 V 247.592 H 443.909 V 303.2 c 11.551,-2.659 23.518,-4.215 35.899,-4.215 10.619,0 20.984,1.095 31.033,3.094 V 102.204 h -60.293 v 51.538 c 0,36.921 -30.021,66.951 -66.97,66.951 -36.93,0 -66.95,-30.029 -66.95,-66.951 V 102.204 H 194.213 v 51.538 c 0,36.921 -30.039,66.951 -66.969,66.951 -36.913,0 -66.951,-30.029 -66.951,-66.951 V 102.204 H 0 v 357.891 c 0,72.034 58.412,130.474 130.474,130.474 h 249.885 c 2.967,0 5.897,-0.244 8.81,-0.435 -24.006,-16.589 -43.182,-39.609 -55.23,-66.544 z" inkscape:connector-curvature="0" style="fill: rgb(255, 255, 255); stroke: rgb(0, 0, 0); stroke-width: 8.31296; stroke-miterlimit: 4; stroke-opacity: 1;" class="rtHdXRHG_32"></path>

										</g>

									</g>

								</g>

							</g>

						</g>
						      <g id="g1682" style="stroke:#000000;stroke-width:8.31296158;stroke-miterlimit:4;stroke-dasharray:none;stroke-opacity:1">
						</g>
						      <g id="g1684" style="stroke:#000000;stroke-width:8.31296158;stroke-miterlimit:4;stroke-dasharray:none;stroke-opacity:1">
						</g>
						      <g id="g1686" style="stroke:#000000;stroke-width:8.31296158;stroke-miterlimit:4;stroke-dasharray:none;stroke-opacity:1">
						</g>
						      <g id="g1688" style="stroke:#000000;stroke-width:8.31296158;stroke-miterlimit:4;stroke-dasharray:none;stroke-opacity:1">
						</g>
						      <g id="g1690" style="stroke:#000000;stroke-width:8.31296158;stroke-miterlimit:4;stroke-dasharray:none;stroke-opacity:1">
						</g>
						      <g id="g1692" style="stroke:#000000;stroke-width:8.31296158;stroke-miterlimit:4;stroke-dasharray:none;stroke-opacity:1">
						</g>
						      <g id="g1694" style="stroke:#000000;stroke-width:8.31296158;stroke-miterlimit:4;stroke-dasharray:none;stroke-opacity:1">
						</g>
						      <g id="g1696" style="stroke:#000000;stroke-width:8.31296158;stroke-miterlimit:4;stroke-dasharray:none;stroke-opacity:1">
						</g>
						      <g id="g1698" style="stroke:#000000;stroke-width:8.31296158;stroke-miterlimit:4;stroke-dasharray:none;stroke-opacity:1">
						</g>
						      <g id="g1700" style="stroke:#000000;stroke-width:8.31296158;stroke-miterlimit:4;stroke-dasharray:none;stroke-opacity:1">
						</g>
						      <g id="g1702" style="stroke:#000000;stroke-width:8.31296158;stroke-miterlimit:4;stroke-dasharray:none;stroke-opacity:1">
						</g>
						      <g id="g1704" style="stroke:#000000;stroke-width:8.31296158;stroke-miterlimit:4;stroke-dasharray:none;stroke-opacity:1">
						</g>
						      <g id="g1706" style="stroke:#000000;stroke-width:8.31296158;stroke-miterlimit:4;stroke-dasharray:none;stroke-opacity:1">
						</g>
						      <g id="g1708" style="stroke:#000000;stroke-width:8.31296158;stroke-miterlimit:4;stroke-dasharray:none;stroke-opacity:1">
						</g>
						      <g id="g1710" style="stroke:#000000;stroke-width:8.31296158;stroke-miterlimit:4;stroke-dasharray:none;stroke-opacity:1">
						</g>
						    </g>
						    <path style="opacity: 0.964; fill: rgb(191, 135, 60); fill-opacity: 1; stroke: rgb(0, 0, 0); stroke-width: 0.153881; stroke-miterlimit: 4; stroke-opacity: 1;" d="m 237.46511,106.0124 c -6.46439,-1.73867 -12.13986,-7.121279 -14.39716,-13.65426 -0.70777,-2.048388 -0.8237,-3.077627 -0.81223,-7.210873 0.0121,-4.356317 0.10459,-5.052141 0.95894,-7.213037 4.75844,-12.035405 17.61083,-17.230075 28.48802,-11.514269 4.87184,2.560078 8.34082,6.68851 10.25064,12.199295 0.82205,2.372027 0.96158,3.35214 0.95476,6.706583 -0.007,3.277854 -0.16466,4.40182 -0.95386,6.785714 -2.2812,6.890645 -7.86819,12.182857 -14.69763,13.922177 -2.64188,0.67283 -7.24791,0.66279 -9.79148,-0.0213 z m 10.31294,-6.08159 c 0,-0.11905 -0.3903,-0.523472 -0.86734,-0.898713 -0.47705,-0.375241 -1.21337,-1.242121 -1.63628,-1.9264 l -0.76892,-1.244144 h -5.80147 c -5.77285,0 -5.80575,-0.0045 -6.6673,-0.920604 -0.83261,-0.885284 -0.87018,-1.145628 -0.97915,-6.785715 l -0.11332,-5.86511 h 9.30975 9.30975 v 1.345239 1.345238 h 2.14285 2.14286 v -5.630953 -5.630952 h -1.96428 -1.96429 v 2.063391 c 0,2.344163 -0.55799,3.402035 -2.07305,3.930186 -1.35465,0.472234 -3.17151,-0.293832 -3.64395,-1.536444 -0.19494,-0.512712 -0.35443,-1.725313 -0.35443,-2.694669 v -1.762464 h -3.57143 -3.57143 v 2.259173 c 0,1.918188 -0.1284,2.379805 -0.85074,3.058404 -1.20003,1.127373 -2.89506,1.098958 -4.06211,-0.0681 -0.74597,-0.745961 -0.96332,-1.363274 -1.08828,-3.090806 l -0.15614,-2.158673 h -1.75741 -1.75741 l 0.10391,11.038885 0.1039,11.038886 1.09213,1.371829 c 0.60067,0.754506 1.7999,1.733436 2.66496,2.1754 1.48542,0.758916 1.99536,0.803576 9.17573,0.803576 4.18159,0 7.60289,-0.0974 7.60289,-0.216462 z m 6.70303,-0.336303 c 2.75225,-1.149964 4.3684,-3.607146 4.3684,-6.641682 0,-6.626676 -7.49189,-9.829367 -12.00806,-5.133296 -2.87439,2.988896 -2.8239,7.393919 0.11757,10.256831 0.74513,0.725228 1.75656,1.477679 2.24763,1.672114 1.35285,0.535646 3.79457,0.464366 5.27446,-0.153967 z M 236.6352,94.00441 c 0.55564,-0.555646 0.55564,-3.587211 0,-4.142857 -0.23572,-0.235714 -1.16786,-0.428571 -2.07143,-0.428571 -2.06103,0 -2.5,0.438968 -2.5,2.5 0,2.061031 0.43897,2.5 2.5,2.5 0.90357,0 1.83571,-0.192858 2.07143,-0.428572 z m 5.71428,0 c 0.55565,-0.555646 0.55565,-3.587211 0,-4.142857 -0.23571,-0.235714 -1.19434,-0.428571 -2.13029,-0.428571 -1.90939,0 -2.44114,0.544568 -2.44114,2.5 0,1.955431 0.53175,2.5 2.44114,2.5 0.93595,0 1.89458,-0.192858 2.13029,-0.428572 z m -5.71428,-5.714286 c 0.55564,-0.555645 0.55564,-3.587211 0,-4.142857 -0.55565,-0.555645 -3.58722,-0.555645 -4.14286,0 -0.55565,0.555646 -0.55565,3.587212 0,4.142857 0.23571,0.235715 1.16786,0.428572 2.07143,0.428572 0.90357,0 1.83571,-0.192857 2.07143,-0.428572 z m 5.71428,0 c 0.55565,-0.555645 0.55565,-3.587211 0,-4.142857 -0.23571,-0.235714 -1.19434,-0.428571 -2.13029,-0.428571 -1.90939,0 -2.44114,0.544568 -2.44114,2.5 0,1.955432 0.53175,2.5 2.44114,2.5 0.93595,0 1.89458,-0.192857 2.13029,-0.428572 z m 3.5884,-0.566377 c 0.38966,-0.547221 1.13147,-1.221335 1.64848,-1.49803 0.70096,-0.375142 0.91298,-0.735187 0.83371,-1.415765 -0.0986,-0.846126 -0.25621,-0.9205 -2.16191,-1.019854 -1.93154,-0.100701 -2.07705,-0.05079 -2.41072,0.826821 -0.44714,1.176072 -0.44895,2.022729 -0.007,3.18567 0.4528,1.190954 1.21343,1.16236 2.09724,-0.07884 z m -10.32861,-9.231786 c 0.62307,-0.792096 0.74021,-1.444658 0.74021,-4.123377 0,-2.902607 -0.0771,-3.259416 -0.87662,-4.058979 -1.07094,-1.07094 -1.94658,-1.108476 -3.18236,-0.136416 -0.9,0.707944 -0.94102,0.889849 -0.94102,4.17341 0,3.033413 0.0904,3.529458 0.77654,4.259793 1.05991,1.128223 2.54414,1.079464 3.48325,-0.114431 z m 12.93279,0.25829 c 0.78613,-0.636569 0.84314,-0.928477 0.84314,-4.317269 0,-3.431242 -0.0492,-3.674374 -0.87952,-4.346724 -0.63514,-0.514309 -1.18091,-0.65305 -1.96428,-0.499349 -1.69856,0.333264 -1.97763,1.026756 -1.97763,4.914333 0,3.026978 0.0971,3.600262 0.71428,4.217454 0.90037,0.90037 2.17584,0.912701 3.26401,0.03155 z" id="path1778" inkscape:connector-curvature="0" transform="matrix(0.26458333,0,0,0.26458333,0,244.08332)" class="rtHdXRHG_33"></path>
						  </g>
						<style data-made-with="vivus-instant">.rtHdXRHG_0{stroke-dasharray:57 59;stroke-dashoffset:58;animation:rtHdXRHG_draw 2666ms ease-out 0ms forwards;}.rtHdXRHG_1{stroke-dasharray:12 14;stroke-dashoffset:13;animation:rtHdXRHG_draw 2666ms ease-out 40ms forwards;}.rtHdXRHG_2{stroke-dasharray:24 26;stroke-dashoffset:25;animation:rtHdXRHG_draw 2666ms ease-out 80ms forwards;}.rtHdXRHG_3{stroke-dasharray:9 11;stroke-dashoffset:10;animation:rtHdXRHG_draw 2666ms ease-out 121ms forwards;}.rtHdXRHG_4{stroke-dasharray:45 47;stroke-dashoffset:46;animation:rtHdXRHG_draw 2666ms ease-out 161ms forwards;}.rtHdXRHG_5{stroke-dasharray:19 21;stroke-dashoffset:20;animation:rtHdXRHG_draw 2666ms ease-out 202ms forwards;}.rtHdXRHG_6{stroke-dasharray:43 45;stroke-dashoffset:44;animation:rtHdXRHG_draw 2666ms ease-out 242ms forwards;}.rtHdXRHG_7{stroke-dasharray:10 12;stroke-dashoffset:11;animation:rtHdXRHG_draw 2666ms ease-out 282ms forwards;}.rtHdXRHG_8{stroke-dasharray:36 38;stroke-dashoffset:37;animation:rtHdXRHG_draw 2666ms ease-out 323ms forwards;}.rtHdXRHG_9{stroke-dasharray:6 8;stroke-dashoffset:7;animation:rtHdXRHG_draw 2666ms ease-out 363ms forwards;}.rtHdXRHG_10{stroke-dasharray:31 33;stroke-dashoffset:32;animation:rtHdXRHG_draw 2666ms ease-out 404ms forwards;}.rtHdXRHG_11{stroke-dasharray:241 243;stroke-dashoffset:242;animation:rtHdXRHG_draw 2666ms ease-out 444ms forwards;}.rtHdXRHG_12{stroke-dasharray:336 338;stroke-dashoffset:337;animation:rtHdXRHG_draw 2666ms ease-out 484ms forwards;}.rtHdXRHG_13{stroke-dasharray:4487 4489;stroke-dashoffset:4488;animation:rtHdXRHG_draw 2666ms ease-out 525ms forwards;}.rtHdXRHG_14{stroke-dasharray:138 140;stroke-dashoffset:139;animation:rtHdXRHG_draw 2666ms ease-out 565ms forwards;}.rtHdXRHG_15{stroke-dasharray:149 151;stroke-dashoffset:150;animation:rtHdXRHG_draw 2666ms ease-out 606ms forwards;}.rtHdXRHG_16{stroke-dasharray:2171 2173;stroke-dashoffset:2172;animation:rtHdXRHG_draw 2666ms ease-out 646ms forwards;}.rtHdXRHG_17{stroke-dasharray:333 335;stroke-dashoffset:334;animation:rtHdXRHG_draw 2666ms ease-out 686ms forwards;}.rtHdXRHG_18{stroke-dasharray:229 231;stroke-dashoffset:230;animation:rtHdXRHG_draw 2666ms ease-out 727ms forwards;}.rtHdXRHG_19{stroke-dasharray:154 156;stroke-dashoffset:155;animation:rtHdXRHG_draw 2666ms ease-out 767ms forwards;}.rtHdXRHG_20{stroke-dasharray:1273 1275;stroke-dashoffset:1274;animation:rtHdXRHG_draw 2666ms ease-out 808ms forwards;}.rtHdXRHG_21{stroke-dasharray:1369 1371;stroke-dashoffset:1370;animation:rtHdXRHG_draw 2666ms ease-out 848ms forwards;}.rtHdXRHG_22{stroke-dasharray:410 412;stroke-dashoffset:411;animation:rtHdXRHG_draw 2666ms ease-out 888ms forwards;}.rtHdXRHG_23{stroke-dasharray:1578 1580;stroke-dashoffset:1579;animation:rtHdXRHG_draw 2666ms ease-out 929ms forwards;}.rtHdXRHG_24{stroke-dasharray:326 328;stroke-dashoffset:327;animation:rtHdXRHG_draw 2666ms ease-out 969ms forwards;}.rtHdXRHG_25{stroke-dasharray:445 447;stroke-dashoffset:446;animation:rtHdXRHG_draw 2666ms ease-out 1010ms forwards;}.rtHdXRHG_26{stroke-dasharray:445 447;stroke-dashoffset:446;animation:rtHdXRHG_draw 2666ms ease-out 1050ms forwards;}.rtHdXRHG_27{stroke-dasharray:297 299;stroke-dashoffset:298;animation:rtHdXRHG_draw 2666ms ease-out 1090ms forwards;}.rtHdXRHG_28{stroke-dasharray:297 299;stroke-dashoffset:298;animation:rtHdXRHG_draw 2666ms ease-out 1131ms forwards;}.rtHdXRHG_29{stroke-dasharray:270 272;stroke-dashoffset:271;animation:rtHdXRHG_draw 2666ms ease-out 1171ms forwards;}.rtHdXRHG_30{stroke-dasharray:297 299;stroke-dashoffset:298;animation:rtHdXRHG_draw 2666ms ease-out 1212ms forwards;}.rtHdXRHG_31{stroke-dasharray:297 299;stroke-dashoffset:298;animation:rtHdXRHG_draw 2666ms ease-out 1252ms forwards;}.rtHdXRHG_32{stroke-dasharray:2995 2997;stroke-dashoffset:2996;animation:rtHdXRHG_draw 2666ms ease-out 1292ms forwards;}.rtHdXRHG_33{stroke-dasharray:469 471;stroke-dashoffset:470;animation:rtHdXRHG_draw 2666ms ease-out 1333ms forwards;}@keyframes rtHdXRHG_draw{100%{stroke-dashoffset:0;}}@keyframes rtHdXRHG_fade{0%{stroke-opacity:1;}95.1219512195122%{stroke-opacity:1;}100%{stroke-opacity:0;}}</style></svg>