<svg xmlns:dc="http://purl.org/dc/elements/1.1/" xmlns:cc="http://creativecommons.org/ns#" xmlns:rdf="http://www.w3.org/1999/02/22-rdf-syntax-ns#" xmlns:svg="http://www.w3.org/2000/svg" xmlns="http://www.w3.org/2000/svg" xmlns:sodipodi="http://sodipodi.sourceforge.net/DTD/sodipodi-0.dtd" xmlns:inkscape="http://www.inkscape.org/namespaces/inkscape" width="300" height="200" viewBox="0 0 79.374998 52.916668" version="1.1" id="svg8" sodipodi:docname="calendario.svg" inkscape:version="0.92.3 (2405546, 2018-03-11)" style="">
							  <defs id="defs2"></defs>
							  <sodipodi:namedview id="base" pagecolor="#ffffff" bordercolor="#666666" borderopacity="1.0" inkscape:pageopacity="0.0" inkscape:pageshadow="2" inkscape:zoom="1.4" inkscape:cx="146.90522" inkscape:cy="106.97512" inkscape:document-units="mm" inkscape:current-layer="layer1" showgrid="false" units="px" inkscape:window-width="1920" inkscape:window-height="986" inkscape:window-x="-11" inkscape:window-y="-11" inkscape:window-maximized="1"></sodipodi:namedview>
							  <metadata id="metadata5">
							    <rdf:rdf>
							      <cc:work rdf:about="">
							        <dc:format>image/svg+xml</dc:format>
							        <dc:type rdf:resource="http://purl.org/dc/dcmitype/StillImage"></dc:type>
							        <dc:title></dc:title>
							      </cc:work>
							    </rdf:rdf>
							  </metadata>
							  <g inkscape:label="Capa 1" inkscape:groupmode="layer" id="layer1" transform="translate(0,-244.08332)">
							    <path style="fill:none;stroke:#000000;stroke-width:0.25930393px;stroke-linecap:butt;stroke-linejoin:miter;stroke-opacity:1" d="m 6.9275182,288.73611 c 62.1238138,0 61.7387508,0 61.7387508,0" id="path819" inkscape:connector-curvature="0" class="ETKdsyGW_0"></path>
							    <path style="fill:none;stroke:#000000;stroke-width:0.25960806px;stroke-linecap:butt;stroke-linejoin:miter;stroke-opacity:1" d="m 68.731243,288.72536 v -37.69495 l 2e-6,-0.25732" id="path821" inkscape:connector-curvature="0" class="ETKdsyGW_1"></path>
							    <path style="fill:none;stroke:#000000;stroke-width:0.25930393px;stroke-linecap:butt;stroke-linejoin:miter;stroke-opacity:1" d="m 7.7073892,289.2438 c 62.1238248,0 61.7387608,0 61.7387608,0" id="path819-1" inkscape:connector-curvature="0" class="ETKdsyGW_2"></path>
							    <path style="fill:none;stroke:#000000;stroke-width:0.25960806px;stroke-linecap:butt;stroke-linejoin:miter;stroke-opacity:1" d="m 69.303388,289.10539 v -37.69495 l 2e-6,-0.25732" id="path821-0" inkscape:connector-curvature="0" class="ETKdsyGW_3"></path>
							    <path style="fill:none;stroke:#000000;stroke-width:0.25930393px;stroke-linecap:butt;stroke-linejoin:miter;stroke-opacity:1" d="m 8.1828303,289.65544 c 62.1238357,0 61.7387717,0 61.7387717,0" id="path819-1-2" inkscape:connector-curvature="0" class="ETKdsyGW_4"></path>
							    <path style="fill:none;stroke:#000000;stroke-width:0.25960806px;stroke-linecap:butt;stroke-linejoin:miter;stroke-opacity:1" d="m 69.960817,289.83203 v -37.69495 l 2e-6,-0.25732" id="path821-0-7" inkscape:connector-curvature="0" class="ETKdsyGW_5"></path>
							    <path style="fill:none;stroke:#000000;stroke-width:0.25930393px;stroke-linecap:butt;stroke-linejoin:miter;stroke-opacity:1" d="m 8.861742,290.20609 c 62.123847,0 61.738783,0 61.738783,0" id="path819-1-2-3" inkscape:connector-curvature="0" class="ETKdsyGW_6"></path>
							    <path style="fill:none;stroke:#000000;stroke-width:0.25960806px;stroke-linecap:butt;stroke-linejoin:miter;stroke-opacity:1" d="m 70.698161,290.03487 v -37.69495 l 2e-6,-0.25732" id="path821-0-7-6" inkscape:connector-curvature="0" class="ETKdsyGW_7"></path>
							    <path style="fill:none;stroke:#000000;stroke-width:0.27171752px;stroke-linecap:butt;stroke-linejoin:miter;stroke-opacity:1" d="m 5.7448775,288.00841 c 54.6407525,0 54.6407525,-0.1327 54.6407525,-0.1327" id="path934" inkscape:connector-curvature="0" class="ETKdsyGW_8"></path>
							    <path style="fill:none;stroke:#000000;stroke-width:0.26458332px;stroke-linecap:butt;stroke-linejoin:miter;stroke-opacity:1" d="m 60.386796,287.87524 c 7.216278,-7.75082 7.349914,-7.88445 7.349914,-7.88445 v 0 0 c 0,-29.93419 0,-29.93419 0,-29.93419" id="path936" inkscape:connector-curvature="0" class="ETKdsyGW_9"></path>
							    <path style="fill:none;stroke:#000000;stroke-width:0.26458332px;stroke-linecap:butt;stroke-linejoin:miter;stroke-opacity:1" d="m 60.386795,287.87524 c 0,-7.71323 0,-7.84687 0,-7.84687 7.36603,0 7.36603,0 7.36603,0" id="path938" inkscape:connector-curvature="0" class="ETKdsyGW_10"></path>
							    <path style="fill:none;stroke:#000000;stroke-width:0.26458332px;stroke-linecap:butt;stroke-linejoin:miter;stroke-opacity:1" d="m 5.7448775,288.00841 c 0,-37.51332 0.135052,-37.51332 0.135052,-37.51332 61.7392615,0 61.7392615,0 61.7392615,0" id="path940" inkscape:connector-curvature="0" class="ETKdsyGW_11"></path>
							    <path style="opacity: 0.89; fill: none; stroke: rgb(0, 0, 0); stroke-width: 0.5; stroke-miterlimit: 4; stroke-opacity: 0.954373;" id="rect944" width="6.8153729" height="4.543582" d="M19.777946 269.47122 L26.5933189 269.47122 L26.5933189 274.01480200000003 L19.777946 274.01480200000003 Z" class="ETKdsyGW_12"></path>
							    <path style="opacity: 0.89; fill: none; stroke: rgb(0, 0, 0); stroke-width: 0.5; stroke-miterlimit: 4; stroke-opacity: 0.954373;" id="rect944-7" width="6.8153729" height="4.543582" d="M19.582865 276.82114 L26.3982379 276.82114 L26.3982379 281.36472200000003 L19.582865 281.36472200000003 Z" class="ETKdsyGW_13"></path>
							    <path style="opacity: 0.89; fill: none; stroke: rgb(0, 0, 0); stroke-width: 0.5; stroke-miterlimit: 4; stroke-opacity: 0.954373;" id="rect944-9" width="6.8153729" height="4.543582" d="M58.999748 253.56868 L65.8151209 253.56868 L65.8151209 258.112262 L58.999748 258.112262 Z" class="ETKdsyGW_14"></path>
							    <path style="opacity: 0.89; fill: none; stroke: rgb(0, 0, 0); stroke-width: 0.5; stroke-miterlimit: 4; stroke-opacity: 0.954373;" id="rect944-5" width="6.8153729" height="4.543582" d="M9.9557905 276.82114 L16.7711634 276.82114 L16.7711634 281.36472200000003 L9.9557905 281.36472200000003 Z" class="ETKdsyGW_15"></path>
							    <path style="opacity: 0.89; fill: none; stroke: rgb(0, 0, 0); stroke-width: 0.5; stroke-miterlimit: 4; stroke-opacity: 0.954373;" id="rect944-0" width="6.8153729" height="4.543582" d="M9.5548859 269.33759 L16.370258800000002 269.33759 L16.370258800000002 273.881172 L9.5548859 273.881172 Z" class="ETKdsyGW_16"></path>
							    <path style="opacity: 0.89; fill: none; stroke: rgb(0, 0, 0); stroke-width: 0.5; stroke-miterlimit: 4; stroke-opacity: 0.954373;" id="rect944-03" width="6.8153729" height="4.543582" d="M9.4212513 260.92932 L16.2366242 260.92932 L16.2366242 265.47290200000003 L9.4212513 265.47290200000003 Z" class="ETKdsyGW_17"></path>
							    <path style="opacity: 0.89; fill: none; stroke: rgb(0, 0, 0); stroke-width: 0.5; stroke-miterlimit: 4; stroke-opacity: 0.954373;" id="rect944-3" width="6.8153729" height="4.543582" d="M40.681042 277.08838 L47.4964149 277.08838 L47.4964149 281.631962 L40.681042 281.631962 Z" class="ETKdsyGW_18"></path>
							    <path style="opacity: 0.89; fill: none; stroke: rgb(0, 0, 0); stroke-width: 0.5; stroke-miterlimit: 4; stroke-opacity: 0.954373;" id="rect944-8" width="6.8153729" height="4.543582" d="M30.129267 276.95477 L36.9446399 276.95477 L36.9446399 281.498352 L30.129267 281.498352 Z" class="ETKdsyGW_19"></path>
							    <path style="opacity: 0.89; fill: none; stroke: rgb(0, 0, 0); stroke-width: 0.5; stroke-miterlimit: 4; stroke-opacity: 0.954373;" id="rect944-79" width="6.8153729" height="4.543582" d="M59.267021 261.31949 L66.0823939 261.31949 L66.0823939 265.863072 L59.267021 265.863072 Z" class="ETKdsyGW_20"></path>
							    <path style="opacity: 0.89; fill: none; stroke: rgb(0, 0, 0); stroke-width: 0.5; stroke-miterlimit: 4; stroke-opacity: 0.954373;" id="rect944-1" width="6.8153729" height="4.543582" d="M49.77895 261.18585 L56.5943229 261.18585 L56.5943229 265.72943200000003 L49.77895 265.72943200000003 Z" class="ETKdsyGW_21"></path>
							    <path style="opacity: 0.89; fill: none; stroke: rgb(0, 0, 0); stroke-width: 0.5; stroke-miterlimit: 4; stroke-opacity: 0.954373;" id="rect944-6" width="6.8153729" height="4.543582" d="M40.290882 261.05759 L47.1062549 261.05759 L47.1062549 265.601172 L40.290882 265.601172 Z" class="ETKdsyGW_22"></path>
							    <path style="opacity: 0.89; fill: none; stroke: rgb(0, 0, 0); stroke-width: 0.5; stroke-miterlimit: 4; stroke-opacity: 0.954373;" id="rect944-70" width="6.8153729" height="4.543582" d="M30.13464 260.92395 L36.950012900000004 260.92395 L36.950012900000004 265.467532 L30.13464 265.467532 Z" class="ETKdsyGW_23"></path>
							    <path style="opacity: 0.89; fill: none; stroke: rgb(0, 0, 0); stroke-width: 0.5; stroke-miterlimit: 4; stroke-opacity: 0.954373;" id="rect944-83" width="6.8153729" height="4.543582" d="M19.310225 261.06296 L26.1255979 261.06296 L26.1255979 265.606542 L19.310225 265.606542 Z" class="ETKdsyGW_24"></path>
							    <path style="opacity: 0.89; fill: none; stroke: rgb(0, 0, 0); stroke-width: 0.5; stroke-miterlimit: 4; stroke-opacity: 0.954373;" id="rect944-3-3" width="6.8153729" height="4.543582" d="M40.290882 269.60486 L47.1062549 269.60486 L47.1062549 274.148442 L40.290882 274.148442 Z" class="ETKdsyGW_25"></path>
							    <path style="opacity: 0.89; fill: none; stroke: rgb(0, 0, 0); stroke-width: 0.5; stroke-miterlimit: 4; stroke-opacity: 0.954373;" id="rect944-3-7" width="6.8153729" height="4.543582" d="M50.698277 277.08841 L57.5136499 277.08841 L57.5136499 281.631992 L50.698277 281.631992 Z" class="ETKdsyGW_26"></path>
							    <path style="opacity: 0.89; fill: none; stroke: rgb(0, 0, 0); stroke-width: 0.5; stroke-miterlimit: 4; stroke-opacity: 0.954373;" id="rect944-3-72" width="6.8153729" height="4.543582" d="M30.001005 269.47122 L36.8163779 269.47122 L36.8163779 274.01480200000003 L30.001005 274.01480200000003 Z" class="ETKdsyGW_27"></path>
							    <path style="opacity: 0.89; fill: none; stroke: rgb(0, 0, 0); stroke-width: 0.5; stroke-miterlimit: 4; stroke-opacity: 0.954373;" id="rect944-9-5" width="6.8153729" height="4.543582" d="M59.801559 269.47122 L66.6169319 269.47122 L66.6169319 274.01480200000003 L59.801559 274.01480200000003 Z" class="ETKdsyGW_28"></path>
							    <path style="opacity: 0.89; fill: none; stroke: rgb(0, 0, 0); stroke-width: 0.5; stroke-miterlimit: 4; stroke-opacity: 0.954373;" id="rect944-9-0" width="6.8153729" height="4.543582" d="M50.179852 269.47122 L56.9952249 269.47122 L56.9952249 274.01480200000003 L50.179852 274.01480200000003 Z" class="ETKdsyGW_29"></path>
							    <path style="fill:none;stroke:#000000;stroke-width:0.26458332px;stroke-linecap:butt;stroke-linejoin:miter;stroke-opacity:1" d="m 67.619191,250.49509 c 3.078972,1.58751 3.078972,1.58751 3.078972,1.58751" id="path1092" inkscape:connector-curvature="0" class="ETKdsyGW_30"></path>
							    <flowroot xml:space="preserve" id="flowRoot1094" style="fill:black;fill-opacity:1;stroke:none;font-family:sans-serif;font-style:normal;font-weight:normal;font-size:13.33333333px;line-height:1.25;letter-spacing:0px;word-spacing:0px;"><flowregion id="flowRegion1096" style="font-size:13.33333333px;line-height:1.25;"><path id="rect1098" width="149.75511" height="66.164986" style="font-size:13.33333333px;line-height:1.25;" d="M28.284271 30.294373 L178.039381 30.294373 L178.039381 96.459359 L28.284271 96.459359 Z" class="ETKdsyGW_31"></path></flowregion><flowpara id="flowPara1100"></flowpara></flowroot>    <flowroot xml:space="preserve" id="flowRoot1102" style="font-style:normal;font-variant:normal;font-weight:normal;font-stretch:normal;font-size:40px;line-height:1.25;font-family:Bahnschrift;-inkscape-font-specification:Bahnschrift;letter-spacing:0px;word-spacing:0px;fill:#000000;fill-opacity:1;stroke:#040005;stroke-opacity:0.95437264;stroke-width:1.85960663;stroke-miterlimit:4;stroke-dasharray:none;" transform="matrix(0.43360934,0,0,0.42681451,113.49902,287.27631)"><flowregion id="flowRegion1104" style="stroke:#040005;stroke-opacity:0.95437264;stroke-width:1.85960663;stroke-miterlimit:4;stroke-dasharray:none;"><path id="rect1106" width="302.03561" height="116.16754" style="stroke: rgb(4, 0, 5); stroke-opacity: 0.954373; stroke-width: 1.85961; stroke-miterlimit: 4;" d="M-239.91122 -105.57114 L62.124390000000034 -105.57114 L62.124390000000034 10.596400000000003 L-239.91122 10.596400000000003 Z" class="ETKdsyGW_32"></path></flowregion><flowpara id="flowPara1108" style="font-style:normal;font-variant:normal;font-weight:normal;font-stretch:normal;font-size:18.66666603px;font-family:'Berlin Sans FB Demi';-inkscape-font-specification:'Berlin Sans FB Demi';stroke:#040005;stroke-opacity:0.95437264;stroke-width:1.85960663;stroke-miterlimit:4;stroke-dasharray:none;">Torneo FRM</flowpara></flowroot>    <path style="opacity: 0.89; fill: rgb(191, 135, 60); fill-opacity: 1; stroke: rgb(0, 0, 0); stroke-width: 0; stroke-miterlimit: 4; stroke-opacity: 0.954373;" id="path1116" d="m 60.462384,254.23219 c 0.24578,0.11093 0.476031,0.25076 0.71215,0.38024 0.23967,0.15922 0.49394,0.29333 0.742561,0.4372 0.186754,0.12067 0.393533,0.20301 0.592511,0.30002 0.13335,0.0965 0.256974,0.19829 0.408453,0.26537 0.221136,0.12519 0.455557,0.22341 0.689324,0.32251 0.200073,0.0874 0.384768,0.20376 0.558064,0.33566 0.155552,0.13061 0.306748,0.26714 0.45357,0.40744 0.150411,0.11731 0.315246,0.21318 0.478087,0.3116 0,0 -0.658271,0.0679 -0.658271,0.0679 v 0 c -0.165467,-0.0995 -0.332046,-0.19972 -0.479139,-0.3257 -0.147304,-0.1371 -0.294256,-0.27543 -0.452562,-0.39985 -0.173124,-0.12627 -0.357166,-0.23674 -0.554937,-0.32043 -0.233603,-0.10188 -0.467503,-0.20272 -0.691298,-0.32508 -0.145928,-0.0756 -0.268928,-0.18095 -0.409292,-0.26518 -0.200268,-0.0942 -0.401455,-0.18724 -0.589266,-0.30528 -0.249796,-0.142 -0.499862,-0.28299 -0.743218,-0.43604 -0.235974,-0.13105 -0.468701,-0.26775 -0.715973,-0.37712 0,0 0.659236,-0.0733 0.659236,-0.0733 z" inkscape:connector-curvature="0" class="ETKdsyGW_33"></path>
							    <path style="opacity: 0.89; fill: rgb(191, 135, 60); fill-opacity: 1; stroke: rgb(0, 0, 0); stroke-width: 0; stroke-miterlimit: 4; stroke-opacity: 0.954373;" id="path1118" d="m 64.694519,254.36824 c -0.193895,0.13176 -0.367999,0.29006 -0.543677,0.44469 -0.170431,0.15305 -0.350668,0.29326 -0.51205,0.45613 -0.185177,0.15649 -0.3966,0.28108 -0.607063,0.40064 -0.167748,0.08 -0.300934,0.21003 -0.447879,0.32036 -0.1589,0.12504 -0.333039,0.22671 -0.508907,0.32529 -0.185436,0.13479 -0.393171,0.21307 -0.60764,0.28715 -0.211788,0.0664 -0.4152,0.15631 -0.616227,0.24974 -0.110218,0.0554 -0.214731,0.12039 -0.322834,0.17984 0,0 -0.654418,-0.0708 -0.654418,-0.0708 v 0 c 0.109892,-0.0577 0.212212,-0.12356 0.320635,-0.18354 0.201205,-0.0965 0.405553,-0.18927 0.618585,-0.25648 0.211305,-0.0744 0.424212,-0.13494 0.604155,-0.27564 0.173527,-0.099 0.351385,-0.19159 0.508053,-0.31722 0.15027,-0.10969 0.281715,-0.24513 0.449641,-0.32899 0.209714,-0.1127 0.414372,-0.23969 0.605367,-0.38146 0.160512,-0.16611 0.338976,-0.30935 0.512931,-0.46087 0.175983,-0.15611 0.351976,-0.3129 0.54029,-0.45403 0,0 0.661038,0.0652 0.661038,0.0652 z" inkscape:connector-curvature="0" class="ETKdsyGW_34"></path>
							    <path style="opacity: 0.89; fill: rgb(191, 135, 60); fill-opacity: 1; stroke: rgb(0, 0, 0); stroke-width: 0; stroke-miterlimit: 4; stroke-opacity: 0.954373;" id="path1118-7" d="m 65.485957,270.24324 c -0.193895,0.13176 -0.367999,0.29006 -0.543677,0.44469 -0.170431,0.15305 -0.350668,0.29326 -0.51205,0.45613 -0.185177,0.15649 -0.3966,0.28108 -0.607063,0.40064 -0.167748,0.08 -0.300934,0.21003 -0.447879,0.32036 -0.1589,0.12504 -0.333039,0.22671 -0.508907,0.32529 -0.185436,0.13479 -0.393171,0.21307 -0.60764,0.28715 -0.211788,0.0664 -0.4152,0.15631 -0.616227,0.24974 -0.110218,0.0554 -0.214731,0.12039 -0.322834,0.17984 0,0 -0.654418,-0.0708 -0.654418,-0.0708 v 0 c 0.109892,-0.0577 0.212212,-0.12356 0.320635,-0.18354 0.201205,-0.0965 0.405553,-0.18927 0.618585,-0.25648 0.211305,-0.0744 0.424212,-0.13494 0.604155,-0.27564 0.173527,-0.099 0.351385,-0.19159 0.508053,-0.31722 0.15027,-0.10969 0.281715,-0.24513 0.449641,-0.32899 0.209714,-0.1127 0.414372,-0.23969 0.605367,-0.38146 0.160512,-0.16611 0.338976,-0.30935 0.512931,-0.46087 0.175983,-0.15611 0.351976,-0.3129 0.54029,-0.45403 0,0 0.661038,0.0652 0.661038,0.0652 z" inkscape:connector-curvature="0" class="ETKdsyGW_35"></path>
							    <path style="opacity: 0.89; fill: rgb(191, 135, 60); fill-opacity: 1; stroke: rgb(0, 0, 0); stroke-width: 0; stroke-miterlimit: 4; stroke-opacity: 0.954373;" id="path1116-6" d="m 61.367492,270.16187 c 0.24578,0.11093 0.476031,0.25076 0.71215,0.38024 0.23967,0.15922 0.49394,0.29333 0.742561,0.4372 0.186754,0.12067 0.393533,0.20301 0.592511,0.30002 0.13335,0.0965 0.256974,0.19829 0.408453,0.26537 0.221136,0.12519 0.455557,0.22341 0.689324,0.32251 0.200073,0.0874 0.384768,0.20376 0.558064,0.33566 0.155552,0.13061 0.306748,0.26714 0.45357,0.40744 0.150411,0.11731 0.315246,0.21318 0.478087,0.3116 0,0 -0.658271,0.0679 -0.658271,0.0679 v 0 c -0.165467,-0.0995 -0.332046,-0.19972 -0.479139,-0.3257 -0.147304,-0.1371 -0.294256,-0.27543 -0.452562,-0.39985 -0.173124,-0.12627 -0.357166,-0.23674 -0.554937,-0.32043 -0.233603,-0.10188 -0.467503,-0.20272 -0.691298,-0.32508 -0.145928,-0.0756 -0.268928,-0.18095 -0.409292,-0.26518 -0.200268,-0.0942 -0.401455,-0.18724 -0.589266,-0.30528 -0.249796,-0.142 -0.499862,-0.28299 -0.743218,-0.43604 -0.235974,-0.13105 -0.468701,-0.26775 -0.715973,-0.37712 0,0 0.659236,-0.0733 0.659236,-0.0733 z" inkscape:connector-curvature="0" class="ETKdsyGW_36"></path>
							    <path style="opacity: 0.89; fill: rgb(191, 135, 60); fill-opacity: 1; stroke: rgb(0, 0, 0); stroke-width: 0; stroke-miterlimit: 4; stroke-opacity: 0.954373;" d="m 22.344162,106.16091 c 0.08949,-32.628889 0.234553,-64.297095 0.32237,-70.373794 L 22.8262,24.738572 H 139.08565 255.3451 v 55.305852 55.305856 h -13.8896 -13.88959 v 14.7332 14.73321 l -6.25032,0.16577 c -3.43768,0.0912 -49.64918,0.2418 -102.69223,0.33474 l -96.4419,0.16896 z m 158.249648,27.16906 v -9.59645 h -13.8896 -13.88959 v 9.59645 9.59645 h 13.88959 13.8896 z m 37.88072,0 v -9.59645 H 204.45867 190.4428 v 9.59645 9.59645 h 14.01587 14.01586 z m -77.78174,-0.50508 v -9.59644 h -13.8896 -13.8896 v 9.59644 9.59645 h 13.8896 13.8896 z m -76.266521,-0.50507 v -9.59645 H 50.536671 36.647074 v 9.59645 9.59645 h 13.889597 13.889598 z m 36.365491,0 v -9.59645 H 86.902163 73.012566 v 9.59645 9.59645 h 13.889597 13.889597 z m 78.28682,-27.27412 v -9.59645 h -13.88959 -13.8896 v 9.59645 9.59645 h 13.8896 13.88959 z m -77.5292,-0.50508 V 94.944174 H 87.659778 73.77018 v 9.596446 9.59645 h 13.889598 13.889602 z m 38.63833,0 v -9.596446 h -13.8896 -13.8896 v 9.596446 9.59645 h 13.8896 13.8896 z m 76.26652,0 v -9.596446 h -13.8896 -13.8896 v 9.596446 9.59645 h 13.8896 13.8896 z m 36.36549,0 v -9.596446 h -13.8896 -13.8896 v 9.596446 9.59645 h 13.8896 13.8896 z M 62.91104,104.03555 V 94.439098 H 49.021443 35.131845 v 9.596452 9.59645 H 49.021443 62.91104 Z M 250.79941,73.730971 v -9.59645 h -13.88959 -13.8896 v 9.59645 9.596449 h 13.8896 13.88959 z M 214.939,73.225894 v -9.596449 h -13.8896 -13.8896 v 9.596449 9.59645 h 13.8896 13.8896 z M 99.781608,72.720818 V 63.124369 H 85.892011 72.002413 v 9.596449 9.596449 h 13.889598 13.889597 z m 79.296972,0 v -9.596449 h -13.88959 -13.8896 v 9.596449 9.596449 h 13.8896 13.88959 z M 62.405964,72.215742 V 62.619293 H 48.516366 34.626769 v 9.596449 9.596449 h 13.889597 13.889598 z m 78.286826,0 v -9.596449 h -13.8896 -13.8896 v 9.596449 9.596449 h 13.8896 13.8896 z M 249.78926,44.436547 v -9.596449 h -13.8896 -13.88959 v 9.596449 9.596449 h 13.88959 13.8896 z M 62.711017,52.233142 c 1.1524,-0.288222 2.903088,-1.593357 3.676226,-2.740616 1.432906,-2.126288 1.6768,-5.662272 0.550967,-7.987934 -0.729002,-1.505914 -2.702766,-3.224877 -4.203227,-3.660614 -1.602736,-0.465438 -4.735075,-0.393549 -5.965039,0.136902 -1.441288,0.621588 -3.071841,2.259798 -3.72917,3.746678 -0.821092,1.85732 -0.820388,4.8249 0.0015,6.684354 1.517416,3.432667 5.278696,4.919195 9.668658,3.82123 z m 45.926723,0.134042 c 1.58325,-0.465304 3.01423,-1.450079 3.01079,-2.071977 -0.003,-0.536909 -1.4442,-3.080741 -1.74543,-3.080741 -0.12229,0 -0.83026,0.282996 -1.57325,0.628879 -0.743,0.345883 -1.78071,0.629988 -2.30603,0.631345 -1.22948,0.0032 -2.5888,-0.568098 -2.94777,-1.238844 -0.26702,-0.498934 -0.21858,-0.527044 0.92669,-0.537712 0.66464,-0.0062 2.61903,-0.160977 4.34308,-0.343968 3.74596,-0.397598 3.91939,-0.525107 3.72953,-2.741969 -0.21489,-2.509188 -1.55914,-4.503947 -3.83371,-5.688965 -1.64415,-0.856571 -4.43765,-0.915975 -6.20002,-0.131843 -3.858253,1.716658 -5.541838,6.531037 -3.736807,10.685768 1.512373,3.481099 5.989397,5.166559 10.332927,3.890027 z m 14.99398,-0.286682 c 1.71308,-0.5396 3.45705,-2.307102 4.05618,-4.110915 0.61112,-1.839902 0.57421,-4.658093 -0.0804,-6.137917 -0.71273,-1.611248 -2.12428,-3.054686 -3.64749,-3.7299 -1.03908,-0.460608 -1.78912,-0.589279 -3.48814,-0.598401 -1.92172,-0.01032 -2.33112,0.07363 -3.65096,0.748616 -5.21453,2.666814 -5.22041,10.905755 -0.01,13.564077 1.83638,0.936851 4.37346,1.035217 6.82047,0.26444 z m 62.4799,0.466115 c 0.18742,-0.118774 1.16114,-2.192607 2.16382,-4.60852 1.00268,-2.415912 1.92893,-4.582255 2.05834,-4.814096 0.14974,-0.268274 0.20518,1.316834 0.15248,4.35985 l -0.0828,4.781378 3.11327,3e-6 3.11326,5e-6 -0.0132,-10.417202 -0.0133,-10.417202 -2.88204,0.03647 c -1.58513,0.02006 -2.91954,0.133701 -2.96536,0.252538 -0.0458,0.118837 -1.25743,2.602552 -2.69247,5.519368 l -2.60916,5.303301 -1.63898,-3.409265 c -0.90144,-1.875096 -2.10877,-4.419458 -2.68295,-5.654138 l -1.04397,-2.244874 -1.32573,0.159239 c -0.72915,0.08758 -2.00758,0.160236 -2.84095,0.161455 l -1.51523,0.0022 -0.0117,10.354041 -0.0117,10.354042 h 3.01873 3.01874 l -0.17045,-4.718527 c -0.0937,-2.59519 -0.1258,-4.669159 -0.0712,-4.608821 0.0546,0.06034 1.03337,2.234247 2.17509,4.830907 1.29883,2.953974 2.23229,4.7627 2.49377,4.832064 0.68618,0.182032 0.90581,0.172608 1.26376,-0.05423 z m -139.674939,-0.181123 0.761368,-0.152275 -0.136812,-7.958889 -0.136812,-7.95889 2.374335,0.09308 2.374333,0.09308 v -2.525381 -2.525381 l -1.136422,0.05724 c -0.625031,0.03148 -4.008882,0.08046 -7.519668,0.108836 -7.190028,0.05812 -6.428751,-0.180563 -6.719555,2.106769 -0.07064,0.555584 -0.209038,1.453812 -0.307562,1.996061 l -0.179134,0.98591 2.604918,-0.14354 2.604918,-0.143538 -0.169017,7.915429 -0.169016,7.915431 0.570775,0.109779 c 0.91176,0.17536 4.35078,0.1928 5.183351,0.02629 z m 28.196727,-10e-4 c 0.34023,-0.130562 0.399463,-0.727588 0.399463,-4.026295 0,-4.581611 0.04449,-4.659257 2.669792,-4.659257 h 1.547256 l 0.152601,-2.694726 c 0.08393,-1.482099 0.08607,-2.802377 0.0047,-2.93395 -0.236646,-0.382903 -2.24117,0.0071 -3.615225,0.703392 l -1.264249,0.640645 -0.0039,-0.572465 c -0.008,-1.18636 -0.225628,-1.250314 -2.793595,-0.821003 -1.308764,0.218798 -2.505635,0.439757 -2.659716,0.49102 -0.201874,0.06717 -0.186828,0.575491 0.05385,1.819398 0.206354,1.066503 0.337545,3.673827 0.343278,6.822524 0.0092,5.080949 0.01098,5.096665 0.577494,5.205776 0.909009,0.175083 4.150974,0.192702 4.588166,0.02493 z m 11.616755,0 c 0.342982,-0.131618 0.399462,-0.771746 0.399462,-4.527362 v -4.374069 l 0.665403,-0.523406 c 0.901255,-0.708929 2.219274,-0.690646 2.729543,0.03786 0.318716,0.455032 0.393126,1.381162 0.393126,4.892927 v 4.331659 l 0.789182,0.157836 c 1.009107,0.201821 3.845413,0.204775 4.367195,0.0045 0.348399,-0.133694 0.399263,-0.9004 0.397906,-5.997781 -0.0018,-6.24622 -0.103828,-6.84207 -1.323805,-7.720741 -1.792,-1.29066 -3.729101,-1.335557 -6.215352,-0.144054 -1.014395,0.486136 -1.891915,0.883883 -1.950046,0.883883 -0.05813,0 -0.10569,-0.33422 -0.10569,-0.74271 0,-0.408491 -0.0879,-0.797035 -0.195333,-0.863432 -0.107433,-0.0664 -1.424136,0.06292 -2.926011,0.287367 l -2.730679,0.408089 0.1637,0.897285 c 0.09004,0.493507 0.224228,3.547097 0.298209,6.785756 0.130952,5.73274 0.148907,5.894279 0.678871,6.108042 0.628615,0.253553 3.972084,0.32556 4.564319,0.0983 z m 57.851887,-3.887327 v -3.914341 h 3.91434 3.91434 v -2.651651 -2.65165 l -3.91434,-0.126269 -3.91434,-0.126269 v -1.262691 -1.262691 l 4.61715,0.07713 4.61714,0.07713 -0.14347,-0.582207 c -0.0789,-0.320214 -0.22471,-1.491344 -0.324,-2.602512 l -0.18052,-2.020305 -7.44988,0.09197 c -4.09743,0.05059 -7.54002,0.174826 -7.6502,0.276092 -0.11019,0.101265 -0.0728,2.162257 0.0831,4.579982 0.17389,2.696627 0.21578,6.607404 0.10838,10.117039 -0.16677,5.44943 -0.15273,5.727111 0.29567,5.846127 0.25892,0.06872 1.72083,0.107963 3.24868,0.0872 l 2.77792,-0.03775 z m 16.82253,3.772692 c 0.29706,-0.158985 0.4527,-0.441358 0.38277,-0.694479 -0.0648,-0.234611 -0.19349,-1.705037 -0.28596,-3.267617 l -0.16812,-2.841054 h 1.29981 1.29981 l 0.71028,1.578364 c 0.39064,0.8681 1.02499,2.390067 1.40965,3.38215 0.65945,1.700816 0.75135,1.812382 1.60986,1.95439 1.17813,0.194876 4.28279,0.193012 5.01424,-0.003 0.31251,-0.08375 0.56821,-0.259437 0.56821,-0.390418 0,-0.130979 -0.79788,-1.901267 -1.77306,-3.933971 l -1.77306,-3.695829 1.11455,-1.150471 c 1.36823,-1.412317 1.81522,-2.281288 2.04454,-3.97474 0.27536,-2.033383 -0.21561,-3.873363 -1.38936,-5.20681 -1.99116,-2.262078 -4.13958,-2.739872 -11.20114,-2.491058 l -4.77005,0.168071 -0.0559,10.279236 c -0.0504,9.264602 -0.0158,10.289962 0.35063,10.387904 0.86233,0.230517 5.13671,0.153851 5.61228,-0.100662 z" id="path1150" inkscape:connector-curvature="0" transform="matrix(0.26458333,0,0,0.26458333,0,244.08332)" class="ETKdsyGW_37"></path>
							    <path style="opacity: 0.89; fill: rgb(191, 135, 60); fill-opacity: 1; stroke: rgb(0, 0, 0); stroke-width: 0; stroke-miterlimit: 4; stroke-opacity: 0.954373;" d="m 161.45513,41.226696 c -0.55991,-0.107311 -0.57498,-0.183513 -0.50508,-2.554125 l 0.0721,-2.443514 1.49271,-0.07695 c 1.66436,-0.0858 2.76283,0.262677 3.31557,1.051828 0.48188,0.687985 0.47214,2.426922 -0.0175,3.125995 -0.60168,0.859012 -2.50795,1.251295 -4.35776,0.896765 z" id="path1152" inkscape:connector-curvature="0" transform="matrix(0.26458333,0,0,0.26458333,0,244.08332)" class="ETKdsyGW_38"></path>
							    <path style="opacity: 0.89; fill: rgb(191, 135, 60); fill-opacity: 1; stroke: rgb(0, 0, 0); stroke-width: 0; stroke-miterlimit: 4; stroke-opacity: 0.954373;" d="m 118.89869,47.069781 c -0.8115,-0.811508 -1.05789,-1.872485 -0.69216,-2.98063 0.36708,-1.112288 0.99701,-1.659868 2.11891,-1.841928 0.79785,-0.129473 1.01698,-0.03896 1.79909,0.743155 0.76519,0.765193 0.89059,1.056881 0.89059,2.071686 0,0.968711 -0.13275,1.313846 -0.73819,1.91929 -0.99094,0.990934 -2.43785,1.028807 -3.37824,0.08843 z" id="path1154" inkscape:connector-curvature="0" transform="matrix(0.26458333,0,0,0.26458333,0,244.08332)" class="ETKdsyGW_39"></path>
							    <path style="opacity: 0.89; fill: rgb(191, 135, 60); fill-opacity: 1; stroke: rgb(0, 0, 0); stroke-width: 0; stroke-miterlimit: 4; stroke-opacity: 0.954373;" d="m 102.63723,43.517158 c -0.19388,-0.505244 0.49874,-1.683138 1.2311,-2.093651 0.60957,-0.341683 0.76707,-0.337002 1.57173,0.04671 0.83786,0.399547 1.45847,1.489419 1.06958,1.87831 -0.0831,0.08313 -0.96144,0.225425 -1.9518,0.316201 -1.32491,0.121442 -1.83234,0.08245 -1.92061,-0.147573 z" id="path1156" inkscape:connector-curvature="0" transform="matrix(0.26458333,0,0,0.26458333,0,244.08332)" class="ETKdsyGW_40"></path>
							    <path style="opacity: 0.89; fill: rgb(191, 135, 60); fill-opacity: 1; stroke: rgb(0, 0, 0); stroke-width: 0; stroke-miterlimit: 4; stroke-opacity: 0.954373;" d="m 58.261534,46.942552 c -1.179459,-1.401707 -0.717749,-3.872191 0.844623,-4.519347 1.959048,-0.811464 3.902069,1.176065 3.277774,3.352858 -0.368017,1.283199 -1.182938,1.94348 -2.398651,1.94348 -0.884741,0 -1.183125,-0.134499 -1.723746,-0.776991 z" id="path1158" inkscape:connector-curvature="0" transform="matrix(0.26458333,0,0,0.26458333,0,244.08332)" class="ETKdsyGW_41"></path>
							    <path style="fill:none;stroke:#000000;stroke-width:0.26458332px;stroke-linecap:butt;stroke-linejoin:miter;stroke-opacity:1" d="m 5.7448775,288.00841 c 3.1168644,2.19768 3.1168644,2.19768 3.1168644,2.19768" id="path1162" inkscape:connector-curvature="0" class="ETKdsyGW_42"></path>
							    <path style="opacity: 0.89; fill: rgb(191, 135, 60); fill-opacity: 1; stroke: rgb(4, 0, 5); stroke-width: 0.8; stroke-miterlimit: 4; stroke-opacity: 0.954373;" id="path1181" d="M34.206845300000005,246.16219A1.4174107,1.1339285 0,1,1 37.0416667,246.16219A1.4174107,1.1339285 0,1,1 34.206845300000005,246.16219" class="ETKdsyGW_43"></path>
							    <path style="fill:none;stroke:#000000;stroke-width:0.26458332px;stroke-linecap:butt;stroke-linejoin:miter;stroke-opacity:1" d="m 6.039432,250.62873 c 28.167412,-4.27755 28.167412,-4.27755 28.167412,-4.27755" id="path1183" inkscape:connector-curvature="0" class="ETKdsyGW_44"></path>
							    <path style="fill:none;stroke:#000000;stroke-width:0.26458332px;stroke-linecap:butt;stroke-linejoin:miter;stroke-opacity:1" d="M 67.736709,250.0566 37.986606,245.9732" id="path1185" inkscape:connector-curvature="0" sodipodi:nodetypes="cc" class="ETKdsyGW_45"></path>
							  </g>
							<style data-made-with="vivus-instant">.ETKdsyGW_0{stroke-dasharray:62 64;stroke-dashoffset:63;animation:ETKdsyGW_draw 2666ms linear 0ms forwards;}.ETKdsyGW_1{stroke-dasharray:38 40;stroke-dashoffset:39;animation:ETKdsyGW_draw 2666ms linear 29ms forwards;}.ETKdsyGW_2{stroke-dasharray:62 64;stroke-dashoffset:63;animation:ETKdsyGW_draw 2666ms linear 59ms forwards;}.ETKdsyGW_3{stroke-dasharray:38 40;stroke-dashoffset:39;animation:ETKdsyGW_draw 2666ms linear 88ms forwards;}.ETKdsyGW_4{stroke-dasharray:62 64;stroke-dashoffset:63;animation:ETKdsyGW_draw 2666ms linear 118ms forwards;}.ETKdsyGW_5{stroke-dasharray:38 40;stroke-dashoffset:39;animation:ETKdsyGW_draw 2666ms linear 148ms forwards;}.ETKdsyGW_6{stroke-dasharray:62 64;stroke-dashoffset:63;animation:ETKdsyGW_draw 2666ms linear 177ms forwards;}.ETKdsyGW_7{stroke-dasharray:38 40;stroke-dashoffset:39;animation:ETKdsyGW_draw 2666ms linear 207ms forwards;}.ETKdsyGW_8{stroke-dasharray:55 57;stroke-dashoffset:56;animation:ETKdsyGW_draw 2666ms linear 237ms forwards;}.ETKdsyGW_9{stroke-dasharray:41 43;stroke-dashoffset:42;animation:ETKdsyGW_draw 2666ms linear 266ms forwards;}.ETKdsyGW_10{stroke-dasharray:16 18;stroke-dashoffset:17;animation:ETKdsyGW_draw 2666ms linear 296ms forwards;}.ETKdsyGW_11{stroke-dasharray:100 102;stroke-dashoffset:101;animation:ETKdsyGW_draw 2666ms linear 325ms forwards;}.ETKdsyGW_12{stroke-dasharray:23 25;stroke-dashoffset:24;animation:ETKdsyGW_draw 2666ms linear 355ms forwards;}.ETKdsyGW_13{stroke-dasharray:23 25;stroke-dashoffset:24;animation:ETKdsyGW_draw 2666ms linear 385ms forwards;}.ETKdsyGW_14{stroke-dasharray:23 25;stroke-dashoffset:24;animation:ETKdsyGW_draw 2666ms linear 414ms forwards;}.ETKdsyGW_15{stroke-dasharray:23 25;stroke-dashoffset:24;animation:ETKdsyGW_draw 2666ms linear 444ms forwards;}.ETKdsyGW_16{stroke-dasharray:23 25;stroke-dashoffset:24;animation:ETKdsyGW_draw 2666ms linear 474ms forwards;}.ETKdsyGW_17{stroke-dasharray:23 25;stroke-dashoffset:24;animation:ETKdsyGW_draw 2666ms linear 503ms forwards;}.ETKdsyGW_18{stroke-dasharray:23 25;stroke-dashoffset:24;animation:ETKdsyGW_draw 2666ms linear 533ms forwards;}.ETKdsyGW_19{stroke-dasharray:23 25;stroke-dashoffset:24;animation:ETKdsyGW_draw 2666ms linear 562ms forwards;}.ETKdsyGW_20{stroke-dasharray:23 25;stroke-dashoffset:24;animation:ETKdsyGW_draw 2666ms linear 592ms forwards;}.ETKdsyGW_21{stroke-dasharray:23 25;stroke-dashoffset:24;animation:ETKdsyGW_draw 2666ms linear 622ms forwards;}.ETKdsyGW_22{stroke-dasharray:23 25;stroke-dashoffset:24;animation:ETKdsyGW_draw 2666ms linear 651ms forwards;}.ETKdsyGW_23{stroke-dasharray:23 25;stroke-dashoffset:24;animation:ETKdsyGW_draw 2666ms linear 681ms forwards;}.ETKdsyGW_24{stroke-dasharray:23 25;stroke-dashoffset:24;animation:ETKdsyGW_draw 2666ms linear 711ms forwards;}.ETKdsyGW_25{stroke-dasharray:23 25;stroke-dashoffset:24;animation:ETKdsyGW_draw 2666ms linear 740ms forwards;}.ETKdsyGW_26{stroke-dasharray:23 25;stroke-dashoffset:24;animation:ETKdsyGW_draw 2666ms linear 770ms forwards;}.ETKdsyGW_27{stroke-dasharray:23 25;stroke-dashoffset:24;animation:ETKdsyGW_draw 2666ms linear 799ms forwards;}.ETKdsyGW_28{stroke-dasharray:23 25;stroke-dashoffset:24;animation:ETKdsyGW_draw 2666ms linear 829ms forwards;}.ETKdsyGW_29{stroke-dasharray:23 25;stroke-dashoffset:24;animation:ETKdsyGW_draw 2666ms linear 859ms forwards;}.ETKdsyGW_30{stroke-dasharray:4 6;stroke-dashoffset:5;animation:ETKdsyGW_draw 2666ms linear 888ms forwards;}.ETKdsyGW_31{stroke-dasharray:432 434;stroke-dashoffset:433;animation:ETKdsyGW_draw 2666ms linear 918ms forwards;}.ETKdsyGW_32{stroke-dasharray:837 839;stroke-dashoffset:838;animation:ETKdsyGW_draw 2666ms linear 948ms forwards;}.ETKdsyGW_33{stroke-dasharray:13 15;stroke-dashoffset:14;animation:ETKdsyGW_draw 2666ms linear 977ms forwards;}.ETKdsyGW_34{stroke-dasharray:12 14;stroke-dashoffset:13;animation:ETKdsyGW_draw 2666ms linear 1007ms forwards;}.ETKdsyGW_35{stroke-dasharray:12 14;stroke-dashoffset:13;animation:ETKdsyGW_draw 2666ms linear 1037ms forwards;}.ETKdsyGW_36{stroke-dasharray:13 15;stroke-dashoffset:14;animation:ETKdsyGW_draw 2666ms linear 1066ms forwards;}.ETKdsyGW_37{stroke-dasharray:3103 3105;stroke-dashoffset:3104;animation:ETKdsyGW_draw 2666ms linear 1096ms forwards;}.ETKdsyGW_38{stroke-dasharray:19 21;stroke-dashoffset:20;animation:ETKdsyGW_draw 2666ms linear 1125ms forwards;}.ETKdsyGW_39{stroke-dasharray:17 19;stroke-dashoffset:18;animation:ETKdsyGW_draw 2666ms linear 1155ms forwards;}.ETKdsyGW_40{stroke-dasharray:11 13;stroke-dashoffset:12;animation:ETKdsyGW_draw 2666ms linear 1185ms forwards;}.ETKdsyGW_41{stroke-dasharray:17 19;stroke-dashoffset:18;animation:ETKdsyGW_draw 2666ms linear 1214ms forwards;}.ETKdsyGW_42{stroke-dasharray:4 6;stroke-dashoffset:5;animation:ETKdsyGW_draw 2666ms linear 1244ms forwards;}.ETKdsyGW_43{stroke-dasharray:9 11;stroke-dashoffset:10;animation:ETKdsyGW_draw 2666ms linear 1274ms forwards;}.ETKdsyGW_44{stroke-dasharray:29 31;stroke-dashoffset:30;animation:ETKdsyGW_draw 2666ms linear 1303ms forwards;}.ETKdsyGW_45{stroke-dasharray:31 33;stroke-dashoffset:32;animation:ETKdsyGW_draw 2666ms linear 1333ms forwards;}@keyframes ETKdsyGW_draw{100%{stroke-dashoffset:0;}}@keyframes ETKdsyGW_fade{0%{stroke-opacity:1;}95.1219512195122%{stroke-opacity:1;}100%{stroke-opacity:0;}}</style></svg>