<svg xmlns:dc="http://purl.org/dc/elements/1.1/" xmlns:cc="http://creativecommons.org/ns#" xmlns:rdf="http://www.w3.org/1999/02/22-rdf-syntax-ns#" xmlns:svg="http://www.w3.org/2000/svg" xmlns="http://www.w3.org/2000/svg" xmlns:sodipodi="http://sodipodi.sourceforge.net/DTD/sodipodi-0.dtd" xmlns:inkscape="http://www.inkscape.org/namespaces/inkscape" width="300" height="200" viewBox="0 0 79.374998 52.916668" version="1.1" id="localizacionsvg" inkscape:version="0.92.3 (2405546, 2018-03-11)" sodipodi:docname="penalty.svg" style="">
  <defs id="defs4513"></defs>
  <sodipodi:namedview id="localizasvg" pagecolor="#ffffff" bordercolor="#666666" borderopacity="1.0" inkscape:pageopacity="0.0" inkscape:pageshadow="2" inkscape:zoom="1.979899" inkscape:cx="127.84089" inkscape:cy="115.67267" inkscape:document-units="mm" inkscape:current-layer="layer1" showgrid="false" units="px" inkscape:window-width="1920" inkscape:window-height="986" inkscape:window-x="-11" inkscape:window-y="-11" inkscape:window-maximized="1"></sodipodi:namedview>
  <metadata id="metadata4516">
    <rdf:rdf>
      <cc:work rdf:about="">
        <dc:format>image/svg+xml</dc:format>
        <dc:type rdf:resource="http://purl.org/dc/dcmitype/StillImage"></dc:type>
        <dc:title></dc:title>
      </cc:work>
    </rdf:rdf>
  </metadata>
  <g inkscape:label="Capa 1" inkscape:groupmode="layer" id="layer1" transform="translate(0,-244.08332)">
    <path style="fill: none; stroke: rgb(0, 0, 0); stroke-width: 0.765; stroke-linecap: butt; stroke-linejoin: miter; stroke-miterlimit: 4; stroke-opacity: 1;" d="m 15.100729,270.67394 48.375783,0.13363 C 60.13123,263.79822 51.608995,259.28143 38.219543,259.84952 25.568276,259.6073 19.002356,264.09962 15.100729,270.67394 Z" id="path5093" inkscape:connector-curvature="0" sodipodi:nodetypes="cccc" class="XjRyHXbq_0"></path>
    <path style="fill: none; stroke: rgb(0, 0, 0); stroke-width: 0.763275; stroke-linecap: butt; stroke-linejoin: miter; stroke-miterlimit: 4; stroke-opacity: 1;" d="m -0.40066615,270.94115 c 79.11748415,0 78.45263115,0.26739 79.38342615,0.26739 0.930794,0 0.930794,0 0.930794,0 l -1.196736,-0.1337" id="path5099" inkscape:connector-curvature="0" class="XjRyHXbq_1"></path>
    <path style="fill:none;stroke:#000000;stroke-width:0.26458332px;stroke-linecap:butt;stroke-linejoin:miter;stroke-opacity:1" d="M 91.406177,278.15749 Z" id="path5101" inkscape:connector-curvature="0" class="XjRyHXbq_2"></path>
    <path style="opacity: 1; fill: rgb(191, 135, 60); fill-opacity: 1; stroke: rgb(25, 25, 25); stroke-width: 0.79375; stroke-linecap: square; stroke-linejoin: bevel; stroke-miterlimit: 4; stroke-opacity: 1; paint-order: markers;" id="path5103" d="M38.2195436,281.56519A1.4699824,1.1358955 0,1,1 41.1595084,281.56519A1.4699824,1.1358955 0,1,1 38.2195436,281.56519" class="XjRyHXbq_3"></path>
    <path style="opacity: 1; fill: rgb(191, 135, 60); fill-opacity: 1; stroke: rgb(25, 25, 25); stroke-width: 0.377953; stroke-linecap: square; stroke-linejoin: bevel; stroke-miterlimit: 4; stroke-opacity: 1; paint-order: markers;" d="m 96.063696,98.777597 -35.767292,-0.257624 2.659658,-3.788072 c 3.563686,-5.075652 10.836327,-12.522912 16.065745,-16.451492 7.888918,-5.926517 19.732807,-11.254431 30.585823,-13.758878 8.56021,-1.975359 15.05545,-2.657312 29.7995,-3.128735 21.68832,-0.693457 34.47493,0.2613 48.15282,3.595497 11.50685,2.804971 21.69325,7.143348 29.77469,12.681013 6.96865,4.77514 14.60915,12.808061 18.75118,19.714245 l 1.13596,1.894036 -52.6954,-0.121183 c -28.98246,-0.06665 -68.79067,-0.237113 -88.462684,-0.378807 z" id="path5107" inkscape:connector-curvature="0" transform="matrix(0.26458333,0,0,0.26458333,0,244.08332)" class="XjRyHXbq_4"></path>
    <path style="opacity: 0.964; fill: rgb(0, 0, 0); fill-opacity: 1; stroke: rgb(0, 0, 0); stroke-width: 0.565; stroke-miterlimit: 4; stroke-opacity: 0.984791;" id="path837" d="M66.683744,251.23009A2.80633,3.0067821 0,1,1 72.29640400000001,251.23009A2.80633,3.0067821 0,1,1 66.683744,251.23009" class="XjRyHXbq_5"></path>
    <path style="opacity: 0.964; fill: rgb(0, 0, 0); fill-opacity: 1; stroke: rgb(0, 0, 0); stroke-width: 0.565; stroke-miterlimit: 4; stroke-opacity: 0.984791;" id="path837-7" d="M28.731474000000002,269.87213A2.80633,3.0067821 0,1,1 34.344134000000004,269.87213A2.80633,3.0067821 0,1,1 28.731474000000002,269.87213" class="XjRyHXbq_6"></path>
    <path style="opacity: 0.964; fill: rgb(0, 0, 0); fill-opacity: 1; stroke: rgb(0, 0, 0); stroke-width: 0.565; stroke-miterlimit: 4; stroke-opacity: 0.984791;" id="path837-4" d="M37.016832,251.43053A2.80633,3.0067821 0,1,1 42.629492000000006,251.43053A2.80633,3.0067821 0,1,1 37.016832,251.43053" class="XjRyHXbq_7"></path>
    <path style="fill: none; stroke: rgb(0, 0, 0); stroke-width: 0.901; stroke-linecap: butt; stroke-linejoin: miter; stroke-miterlimit: 4; stroke-opacity: 1;" d="m 22.049736,272.81209 c 4.543582,7.08264 4.543582,7.08264 4.543582,7.08264" id="path860" inkscape:connector-curvature="0" class="XjRyHXbq_8"></path>
    <path style="fill: none; stroke: rgb(0, 0, 0); stroke-width: 0.901; stroke-linecap: butt; stroke-linejoin: miter; stroke-miterlimit: 4; stroke-opacity: 1;" d="m 26.984114,272.82329 c -5.592444,6.25843 -5.592444,6.25843 -5.592444,6.25843" id="path862" inkscape:connector-curvature="0" class="XjRyHXbq_9"></path>
    <path style="fill: none; stroke: rgb(0, 0, 0); stroke-width: 0.901; stroke-linecap: butt; stroke-linejoin: miter; stroke-miterlimit: 4; stroke-opacity: 1;" d="m 54.91378,272.08831 c -5.592444,6.25843 -5.592444,6.25843 -5.592444,6.25843" id="path862-9" inkscape:connector-curvature="0" class="XjRyHXbq_10"></path>
    <path style="fill: none; stroke: rgb(0, 0, 0); stroke-width: 0.901; stroke-linecap: butt; stroke-linejoin: miter; stroke-miterlimit: 4; stroke-opacity: 1;" d="m 49.712132,272.07711 c 4.543582,7.08264 4.543582,7.08264 4.543582,7.08264" id="path860-2" inkscape:connector-curvature="0" class="XjRyHXbq_11"></path>
    <path style="fill: none; stroke: rgb(0, 0, 0); stroke-width: 0.264583; stroke-linecap: butt; stroke-linejoin: miter; stroke-miterlimit: 4; stroke-opacity: 1;" d="m 69.623712,254.23686 c 1.284259,27.17995 -0.133636,28.46421 -0.133636,28.46421" id="path894" inkscape:connector-curvature="0" sodipodi:nodetypes="cc" class="XjRyHXbq_12"></path>
    <path style="fill: none; stroke: rgb(0, 0, 0); stroke-width: 0.665; stroke-linecap: butt; stroke-linejoin: miter; stroke-miterlimit: 4; stroke-opacity: 1;" d="m 65.876566,277.48394 4.142677,5.7463 3.474503,-6.01357" id="path896" inkscape:connector-curvature="0" class="XjRyHXbq_13"></path>
    <path style="fill: none; stroke: rgb(0, 0, 0); stroke-width: 0.665; stroke-linecap: butt; stroke-linejoin: miter; stroke-miterlimit: 4; stroke-opacity: 1;" d="m 42.896758,252.09871 c 22.189864,7.08543 21.226374,15.0672 24.588797,22.58427" id="path898" inkscape:connector-curvature="0" sodipodi:nodetypes="cc" class="XjRyHXbq_14"></path>
    <path style="fill: none; stroke: rgb(0, 0, 0); stroke-width: 0.765; stroke-linecap: butt; stroke-linejoin: miter; stroke-miterlimit: 4; stroke-opacity: 1;" d="m 62.140162,274.01481 5.345393,0.66817 0.534538,-5.61266" id="path900" inkscape:connector-curvature="0" class="XjRyHXbq_15"></path>
    <path style="fill: none; stroke: rgb(0, 0, 0); stroke-width: 0.765; stroke-linecap: butt; stroke-linejoin: miter; stroke-miterlimit: 4; stroke-opacity: 1;" d="m 17.773423,296.99999 c 0,-6.1472 0.133635,-6.1472 0.133635,-6.1472 l 44.90128,0 0.26727,6.28083 v 0" id="path902" inkscape:connector-curvature="0" sodipodi:nodetypes="ccccc" class="XjRyHXbq_16"></path>
    <path style="fill: none; stroke: rgb(0, 0, 0); stroke-width: 0.065; stroke-linecap: butt; stroke-linejoin: miter; stroke-opacity: 1; stroke-miterlimit: 4;" d="m 17.773423,296.99999 c 45.302185,0.13363 45.302185,0.13363 45.302185,0.13363 v 0" id="path904" inkscape:connector-curvature="0" class="XjRyHXbq_17"></path>
    <path style="opacity: 0.964; fill: rgb(255, 202, 85); fill-opacity: 1; stroke: rgb(0, 0, 0); stroke-width: 0.124082; stroke-miterlimit: 4; stroke-opacity: 0.984791;" d="M 135.4928,199.91405 68.948997,199.78404 V 189.1793 178.57456 h 83.306643 83.30663 l 0.26444,2.14658 c 0.14544,1.18061 0.40499,6.06722 0.57678,10.85914 l 0.31234,8.71256 -17.33962,-0.12439 c -9.53679,-0.0684 -47.28433,-0.18289 -83.88341,-0.2544 z" id="path906" inkscape:connector-curvature="0" transform="matrix(0.26458333,0,0,0.26458333,0,244.08332)" class="XjRyHXbq_18"></path>
    <path style="opacity: 0.964; fill: rgb(191, 135, 60); fill-opacity: 1; stroke: rgb(0, 0, 0); stroke-width: 0.124082; stroke-miterlimit: 4; stroke-opacity: 0.984791;" d="m 81.702173,199.40939 -12.2481,-0.14466 v -10.09405 -10.09405 l 82.958777,0.12777 82.95878,0.12778 0.34034,4.54568 c 0.18719,2.50013 0.41447,7.10292 0.50507,10.22842 l 0.16474,5.68273 -71.21575,-0.11748 c -39.16867,-0.0646 -76.727402,-0.18258 -83.463857,-0.26214 z" id="path908" inkscape:connector-curvature="0" transform="matrix(0.26458333,0,0,0.26458333,0,244.08332)" class="XjRyHXbq_19"></path>
  </g>
</svg>