<svg xmlns="http://www.w3.org/2000/svg" viewBox="0 0 512 512"><path d="M3.263 139.527c0-7.477 3.917-11.572 11.573-11.572h15.131V88.078c0-5.163 2.519-7.656 7.529-7.656h40.58c5.163 0 7.63 2.493 7.63 7.656v39.877h15.082c7.656 0 11.601 4.095 11.601 11.572v32.97c0 7.477-3.945 11.572-11.601 11.572H22.836c-7.656 0-11.573-4.095-11.573-11.572v-32.97zm114.95 0c0-7.477 3.917-11.572 11.573-11.572h15.131V88.078c0-5.163 2.519-7.656 7.529-7.656h40.58c5.163 0 7.63 2.493 7.63 7.656v39.877h15.082c7.656 0 11.601 4.095 11.601 11.572v32.97c0 7.477-3.945 11.572-11.601 11.572H129.786c-7.656 0-11.573-4.095-11.573-11.572v-32.97zM3.263 275.927c0-7.477 3.917-11.572 11.573-11.572h15.131v-39.877c0-5.163 2.519-7.656 7.529-7.656h40.58c5.163 0 7.63 2.493 7.63 7.656v39.877h15.082c7.656 0 11.601 4.095 11.601 11.572v32.97c0 7.477-3.945 11.572-11.601 11.572H22.836c-7.656 0-11.573-4.095-11.573-11.572v-32.97zm114.95 0c0-7.477 3.917-11.572 11.573-11.572h15.131v-39.877c0-5.163 2.519-7.656 7.529-7.656h40.58c5.163 0 7.63 2.493 7.63 7.656v39.877h15.082c7.656 0 11.601 4.095 11.601 11.572v32.97c0 7.477-3.945 11.572-11.601 11.572H129.786c-7.656 0-11.573-4.095-11.573-11.572v-32.97zM3.263 412.327c0-7.477 3.917-11.572 11.573-11.572h15.131v-39.877c0-5.163 2.519-7.656 7.529-7.656h40.58c5.163 0 7.63 2.493 7.63 7.656v39.877h15.082c7.656 0 11.601 4.095 11.601 11.572v32.97c0 7.477-3.945 11.572-11.601 11.572H22.836c-7.656 0-11.573-4.095-11.573-11.572v-32.97zM160 72h352v48H160zm0 136h352v48H160zm0 136h352v48H160z"/></svg>