<svg xmlns:dc="http://purl.org/dc/elements/1.1/" xmlns:cc="http://creativecommons.org/ns#" xmlns:rdf="http://www.w3.org/1999/02/22-rdf-syntax-ns#" xmlns:svg="http://www.w3.org/2000/svg" xmlns="http://www.w3.org/2000/svg" xmlns:sodipodi="http://sodipodi.sourceforge.net/DTD/sodipodi-0.dtd" xmlns:inkscape="http://www.inkscape.org/namespaces/inkscape" width="300" height="200" viewBox="0 0 79.374998 52.916668" version="1.1" id="svg6650" inkscape:version="0.92.3 (2405546, 2018-03-11)" sodipodi:docname="corner.svg" style="">
						  <defs id="defs6644"></defs>
						  <sodipodi:namedview id="base" pagecolor="#ffffff" bordercolor="#666666" borderopacity="1.0" inkscape:pageopacity="0.0" inkscape:pageshadow="2" inkscape:zoom="2.8" inkscape:cx="132.57805" inkscape:cy="106.84236" inkscape:document-units="mm" inkscape:current-layer="layer1" showgrid="false" units="px" inkscape:window-width="1920" inkscape:window-height="986" inkscape:window-x="-11" inkscape:window-y="-11" inkscape:window-maximized="1"></sodipodi:namedview>
						  <metadata id="metadata6647">
						    <rdf:rdf>
						      <cc:work rdf:about="">
						        <dc:format>image/svg+xml</dc:format>
						        <dc:type rdf:resource="http://purl.org/dc/dcmitype/StillImage"></dc:type>
						        <dc:title></dc:title>
						      </cc:work>
						    </rdf:rdf>
						  </metadata>
						  <g inkscape:label="Capa 1" inkscape:groupmode="layer" id="layer1" transform="translate(0,-244.08332)">
						    <path style="fill:none;stroke:#000000;stroke-width:0.26458332px;stroke-linecap:butt;stroke-linejoin:miter;stroke-opacity:1" d="M 0.09449405,296.90549 C 40.065475,286.79463 40.065475,286.79463 40.065475,286.79463" id="path7211" inkscape:connector-curvature="0" class="kyfxBrIV_0"></path>
						    <path style="fill:none;stroke:#000000;stroke-width:0.26458332px;stroke-linecap:butt;stroke-linejoin:miter;stroke-opacity:1" d="M 79.563988,297.18898 C 40.065475,286.79463 40.065475,286.79463 40.065475,286.79463" id="path7213" inkscape:connector-curvature="0" class="kyfxBrIV_1"></path>
						    <path style="fill: none; stroke: rgb(0, 0, 0); stroke-width: 0.865; stroke-linecap: butt; stroke-linejoin: miter; stroke-miterlimit: 4; stroke-opacity: 1;" d="m 40.065475,286.79463 c 0,-24.37947 -0.09449,-24.37947 -0.09449,-24.37947 v 0" id="path7215" inkscape:connector-curvature="0" class="kyfxBrIV_2"></path>
						    <path style="fill:none;stroke:#000000;stroke-width:0.26458332px;stroke-linecap:butt;stroke-linejoin:miter;stroke-opacity:1" d="m 39.970985,262.41516 c 8.598955,4.15774 8.598955,4.15774 8.598955,4.15774 -8.504464,3.30729 -8.598958,3.30729 -8.598958,3.30729" id="path7217" inkscape:connector-curvature="0" class="kyfxBrIV_3"></path>
						    <path style="fill:none;stroke:#000000;stroke-width:0.26458332px;stroke-linecap:butt;stroke-linejoin:miter;stroke-opacity:1" d="m 30.710565,289.15698 c 12.243186,4.49562 18.230378,-0.0893 18.237351,-0.0945" id="path7221" inkscape:connector-curvature="0" sodipodi:nodetypes="cc" class="kyfxBrIV_4"></path>
						    <path style="opacity: 1; fill: rgb(191, 135, 60); fill-opacity: 1; stroke: rgb(25, 25, 25); stroke-width: 1.57255; stroke-linecap: square; stroke-linejoin: bevel; stroke-miterlimit: 4; stroke-opacity: 1; paint-order: markers;" d="m 151.93938,83.461216 c -0.0748,-7.022322 -0.10643,-12.818617 -0.0704,-12.880657 0.0813,-0.139917 29.13421,13.837403 29.53453,14.20905 0.15938,0.147964 -0.80491,0.680038 -2.14286,1.182386 -1.33795,0.502349 -7.86458,3.015697 -14.50362,5.585219 -6.63904,2.569523 -12.20841,4.671859 -12.37637,4.671859 -0.16796,0 -0.36655,-5.745536 -0.44132,-12.767857 z" id="path7223" inkscape:connector-curvature="0" transform="matrix(0.26458333,0,0,0.26458333,0,244.08332)" class="kyfxBrIV_5"></path>
						    <path style="opacity: 1; fill: rgb(191, 135, 60); fill-opacity: 1; stroke: rgb(25, 25, 25); stroke-width: 1.57255; stroke-linecap: square; stroke-linejoin: bevel; stroke-miterlimit: 4; stroke-opacity: 1; paint-order: markers;" d="m 148.07805,176.9169 c -7.07876,-0.483 -15.71935,-2.12596 -23.39285,-4.44803 -7.10936,-2.15136 -8.16122,-1.50941 10,-6.10307 8.83928,-2.23579 16.3125,-4.07258 16.60714,-4.08175 0.83378,-0.026 31.42595,8.02457 31.42734,8.27032 0.002,0.36637 -5.35739,2.68322 -8.47254,3.66262 -4.54325,1.42839 -9.43301,2.30553 -15.09766,2.70827 -2.84821,0.2025 -5.58035,0.34651 -6.07143,0.32003 -0.49107,-0.0265 -2.74107,-0.17426 -5,-0.32839 z" id="path7225" inkscape:connector-curvature="0" transform="matrix(0.26458333,0,0,0.26458333,0,244.08332)" class="kyfxBrIV_6"></path>
						  </g>
						<style data-made-with="vivus-instant">.kyfxBrIV_0{stroke-dasharray:42 44;stroke-dashoffset:43;animation:kyfxBrIV_draw 4000ms ease-out 0ms forwards;}.kyfxBrIV_1{stroke-dasharray:41 43;stroke-dashoffset:42;animation:kyfxBrIV_draw 4000ms ease-out 0ms forwards;}.kyfxBrIV_2{stroke-dasharray:25 27;stroke-dashoffset:26;animation:kyfxBrIV_draw 4000ms ease-out 0ms forwards;}.kyfxBrIV_3{stroke-dasharray:19 21;stroke-dashoffset:20;animation:kyfxBrIV_draw 4000ms ease-out 0ms forwards;}.kyfxBrIV_4{stroke-dasharray:19 21;stroke-dashoffset:20;animation:kyfxBrIV_draw 4000ms ease-out 0ms forwards;}.kyfxBrIV_5{stroke-dasharray:90 92;stroke-dashoffset:91;animation:kyfxBrIV_draw 4000ms ease-out 0ms forwards;}.kyfxBrIV_6{stroke-dasharray:130 132;stroke-dashoffset:131;animation:kyfxBrIV_draw 4000ms ease-out 0ms forwards;}@keyframes kyfxBrIV_draw{100%{stroke-dashoffset:0;}}@keyframes kyfxBrIV_fade{0%{stroke-opacity:1;}95.1219512195122%{stroke-opacity:1;}100%{stroke-opacity:0;}}</style></svg>